<?xml version="1.0" encoding="utf-8"?>
<!-- Generator: Adobe Illustrator 16.0.0, SVG Export Plug-In . SVG Version: 6.00 Build 0)  -->
<!DOCTYPE svg PUBLIC "-//W3C//DTD SVG 1.1//EN" "http://www.w3.org/Graphics/SVG/1.1/DTD/svg11.dtd">
<svg version="1.1" id="图层_1" xmlns="http://www.w3.org/2000/svg" xmlns:xlink="http://www.w3.org/1999/xlink" x="0px" y="0px"
	 width="595.28px" height="841.89px" viewBox="0 0 595.28 841.89" enable-background="new 0 0 595.28 841.89" xml:space="preserve">
<g>
	<g>
		<defs>
			<rect id="SVGID_1_" x="216" y="373.89" width="163.118" height="94.554"/>
		</defs>
		<clipPath id="SVGID_2_">
			<use xlink:href="#SVGID_1_"  overflow="visible"/>
		</clipPath>
		<polyline clip-path="url(#SVGID_2_)" fill="#F8F8F8" points="-0.201,295.066 594.799,295.066 594.799,1079.896 -0.201,1079.896 
			-0.201,295.066 		"/>
		<polyline clip-path="url(#SVGID_2_)" fill="#F8F8F8" points="-0.201,332.582 594.799,332.582 594.799,1079.896 -0.201,1079.896 
			-0.201,332.582 		"/>
	</g>
	<g>
		<defs>
			<rect id="SVGID_3_" x="216" y="373.89" width="163.118" height="94.554"/>
		</defs>
		<clipPath id="SVGID_4_">
			<use xlink:href="#SVGID_3_"  overflow="visible"/>
		</clipPath>
		<polyline clip-path="url(#SVGID_4_)" fill="#EDEDEE" points="-0.201,295.066 594.799,295.066 594.799,1079.896 -0.201,1079.896 
			-0.201,295.066 		"/>
		<polyline clip-path="url(#SVGID_4_)" fill="#FFFFFF" points="-0.201,295.066 594.799,295.066 594.799,977.853 -0.201,977.853 
			-0.201,295.066 		"/>
	</g>
	<g>
		<defs>
			<polyline id="SVGID_5_" points="249.466,377.688 334.619,377.688 334.619,463.05 249.466,463.05 249.466,377.688 			"/>
		</defs>
		<clipPath id="SVGID_6_">
			<use xlink:href="#SVGID_5_"  overflow="visible"/>
		</clipPath>
		<path clip-path="url(#SVGID_6_)" fill="#BED63B" d="M253.213,413.799c0,0.748,0.022,1.495,0.065,2.242
			c0.043,0.747,0.108,1.492,0.196,2.235c0.086,0.743,0.194,1.482,0.323,2.219c0.13,0.737,0.28,1.469,0.453,2.197
			c0.171,0.729,0.364,1.451,0.578,2.167c0.213,0.718,0.448,1.427,0.703,2.131c0.254,0.702,0.529,1.398,0.825,2.085
			c0.295,0.688,0.609,1.366,0.944,2.035c0.335,0.669,0.688,1.327,1.06,1.977c0.373,0.647,0.763,1.286,1.173,1.912
			c0.41,0.625,0.836,1.238,1.281,1.841c0.445,0.601,0.907,1.188,1.386,1.763s0.974,1.134,1.485,1.68s1.038,1.077,1.58,1.592
			s1.099,1.015,1.669,1.497c0.571,0.483,1.156,0.949,1.754,1.398c0.597,0.448,1.208,0.88,1.831,1.294
			c0.624,0.414,1.257,0.809,1.904,1.186c0.646,0.377,1.302,0.734,1.968,1.073s1.343,0.658,2.028,0.958
			c0.685,0.3,1.378,0.579,2.08,0.839s1.409,0.499,2.125,0.717c0.715,0.219,1.436,0.416,2.163,0.593
			c0.726,0.177,1.457,0.332,2.193,0.467s1.474,0.247,2.217,0.339c0.742,0.092,1.486,0.161,2.232,0.21s1.493,0.075,2.241,0.08
			c0.748,0.005,1.496-0.011,2.242-0.05c0.746-0.038,1.491-0.098,2.235-0.179c0.743-0.082,1.483-0.185,2.221-0.31
			c0.738-0.124,1.471-0.27,2.199-0.437c0.729-0.166,1.453-0.354,2.171-0.563c0.718-0.208,1.43-0.438,2.134-0.688
			c0.705-0.25,1.402-0.52,2.091-0.81c0.689-0.292,1.369-0.602,2.04-0.931c0.672-0.33,1.333-0.68,1.984-1.047
			c0.65-0.368,1.29-0.755,1.919-1.16c0.628-0.404,1.244-0.828,1.849-1.269s1.194-0.899,1.771-1.374
			c0.578-0.476,1.142-0.967,1.69-1.475c0.549-0.507,1.083-1.03,1.602-1.569s1.021-1.092,1.51-1.66
			c0.485-0.567,0.956-1.149,1.408-1.744c0.453-0.596,0.889-1.202,1.307-1.823c0.418-0.62,0.816-1.252,1.199-1.896
			c0.381-0.644,0.742-1.297,1.087-1.962c0.343-0.665,0.667-1.339,0.971-2.021c0.305-0.684,0.589-1.375,0.854-2.074
			c0.264-0.7,0.508-1.406,0.731-2.12c0.223-0.714,0.426-1.434,0.608-2.159c0.181-0.727,0.341-1.456,0.48-2.191
			c0.139-0.734,0.257-1.473,0.355-2.214c0.096-0.742,0.171-1.486,0.225-2.232c0.053-0.746,0.085-1.493,0.095-2.241
			c0.012-0.747-0.001-1.495-0.033-2.242c-0.033-0.747-0.089-1.494-0.164-2.237c-0.076-0.744-0.175-1.486-0.292-2.224
			c-0.12-0.738-0.261-1.473-0.423-2.203c-0.16-0.73-0.344-1.456-0.548-2.175c-0.203-0.72-0.428-1.433-0.673-2.14
			c-0.245-0.706-0.51-1.405-0.795-2.096c-0.285-0.691-0.591-1.374-0.916-2.047c-0.324-0.674-0.669-1.338-1.032-1.991
			c-0.363-0.654-0.746-1.296-1.146-1.928c0.856,1.021,1.667,2.079,2.425,3.176c0.759,1.096,1.464,2.226,2.117,3.389
			c0.652,1.163,1.25,2.354,1.791,3.573c0.54,1.219,1.023,2.461,1.448,3.726c0.424,1.264,0.788,2.545,1.092,3.844
			c0.303,1.299,0.547,2.608,0.728,3.929c0.181,1.322,0.298,2.648,0.356,3.981c0.056,1.332,0.049,2.665-0.02,3.997
			c-0.068,1.332-0.199,2.658-0.394,3.977c-0.193,1.319-0.447,2.628-0.764,3.923c-0.315,1.297-0.691,2.574-1.127,3.834
			c-0.437,1.261-0.932,2.498-1.483,3.712s-1.16,2.398-1.823,3.556c-0.664,1.157-1.38,2.28-2.148,3.369
			c-0.771,1.09-1.588,2.141-2.455,3.152c-0.868,1.013-1.781,1.983-2.739,2.909c-0.959,0.927-1.959,1.808-3.001,2.64
			c-1.041,0.833-2.119,1.615-3.234,2.347c-1.114,0.73-2.261,1.409-3.439,2.032c-1.179,0.624-2.384,1.191-3.615,1.702
			c-1.231,0.51-2.484,0.961-3.759,1.354s-2.563,0.726-3.869,0.997c-1.305,0.271-2.62,0.481-3.945,0.629s-2.654,0.234-3.987,0.257
			c-1.333,0.023-2.664-0.017-3.993-0.118c-1.33-0.102-2.651-0.267-3.964-0.493c-1.314-0.226-2.615-0.513-3.901-0.861
			c-1.287-0.349-2.555-0.757-3.803-1.224c-1.249-0.468-2.473-0.993-3.672-1.575c-1.199-0.583-2.368-1.221-3.507-1.913
			s-2.244-1.436-3.313-2.232c-1.07-0.796-2.1-1.641-3.09-2.534c-0.99-0.893-1.936-1.83-2.838-2.813
			c-0.902-0.981-1.757-2.004-2.563-3.066c-0.807-1.061-1.561-2.159-2.265-3.292c-0.702-1.134-1.351-2.297-1.945-3.491
			c-0.594-1.193-1.13-2.413-1.61-3.658c-0.479-1.243-0.899-2.508-1.26-3.791c-0.361-1.285-0.661-2.583-0.899-3.896
			c-0.239-1.312-0.416-2.631-0.531-3.961c-0.114-1.328-0.167-2.66-0.156-3.993c0.01-1.333,0.083-2.664,0.218-3.991
			c0.135-1.327,0.332-2.645,0.59-3.953c0.26-1.308,0.579-2.602,0.959-3.88c0.38-1.278,0.819-2.536,1.318-3.772
			c0.499-1.237,1.053-2.448,1.665-3.632c0.612-1.186,1.279-2.339,1.999-3.461c0.721-1.122,1.492-2.208,2.314-3.258
			c-1.747,2.973-3.072,6.123-3.974,9.45S253.207,410.351,253.213,413.799L253.213,413.799z"/>
		<path clip-path="url(#SVGID_6_)" fill="#28AAE2" d="M297.72,380.831c-0.632,0-1.263,0.019-1.894,0.056
			c-0.631,0.037-1.26,0.091-1.887,0.164c-0.627,0.074-1.252,0.165-1.875,0.274c-0.621,0.109-1.24,0.236-1.855,0.381
			c-0.614,0.146-1.225,0.309-1.83,0.489c-0.605,0.181-1.206,0.378-1.8,0.593c-0.593,0.216-1.18,0.448-1.761,0.697
			c-0.581,0.25-1.153,0.516-1.718,0.798c-0.565,0.282-1.122,0.581-1.669,0.896c-0.548,0.314-1.085,0.645-1.615,0.99
			c-0.528,0.346-1.046,0.707-1.555,1.083c-0.508,0.377-1.003,0.767-1.488,1.172c-0.486,0.405-0.958,0.823-1.42,1.255
			c-0.461,0.432-0.908,0.876-1.343,1.335c-0.435,0.458-0.856,0.928-1.264,1.411s-0.802,0.976-1.181,1.481
			c-0.38,0.506-0.743,1.021-1.093,1.548c-0.349,0.526-0.683,1.062-1.001,1.608c-0.318,0.545-0.62,1.101-0.906,1.663
			c-0.287,0.564-0.557,1.135-0.81,1.714c-0.253,0.579-0.489,1.165-0.708,1.757c-0.22,0.593-0.421,1.191-0.606,1.796
			c-0.184,0.604-0.351,1.213-0.5,1.827s-0.281,1.231-0.395,1.853c-0.113,0.622-0.209,1.246-0.286,1.874
			c-0.078,0.626-0.137,1.256-0.178,1.886c-0.041,0.63-0.063,1.262-0.068,1.894c-0.004,0.632,0.01,1.263,0.042,1.894
			c0.032,0.631,0.083,1.261,0.152,1.889c0.068,0.628,0.155,1.253,0.26,1.877c0.105,0.623,0.228,1.242,0.368,1.859
			c0.141,0.616,0.299,1.228,0.475,1.834c0.177,0.606,0.371,1.207,0.582,1.804c0.211,0.595,0.439,1.184,0.684,1.767
			c0.246,0.582,0.507,1.157,0.786,1.725c0.279,0.567,0.573,1.125,0.884,1.676c0.311,0.551,0.637,1.091,0.979,1.622
			s0.699,1.052,1.071,1.563s0.759,1.01,1.16,1.498c0.401,0.488,0.816,0.964,1.245,1.428c0.429,0.464,0.871,0.915,1.326,1.354
			s0.922,0.863,1.401,1.275c0.48,0.411,0.971,0.809,1.474,1.19c0.502,0.384,1.015,0.752,1.539,1.104
			c0.524,0.354,1.058,0.69,1.6,1.014c0.544,0.322,1.096,0.628,1.657,0.919c0.561,0.29,1.13,0.563,1.707,0.821
			c0.576,0.257,1.161,0.497,1.751,0.721s1.188,0.43,1.79,0.618c0.603,0.189,1.21,0.36,1.823,0.514
			c0.613,0.154,1.229,0.29,1.85,0.407c0.621,0.118,1.245,0.218,1.871,0.3c0.625,0.082,1.254,0.146,1.884,0.19
			c0.63,0.046,1.261,0.073,1.893,0.081c0.631,0.01,1.263,0,1.894-0.028c0.631-0.027,1.261-0.073,1.889-0.138
			s1.255-0.146,1.878-0.247c0.624-0.101,1.245-0.22,1.861-0.355c0.617-0.137,1.229-0.291,1.837-0.463
			c0.607-0.172,1.21-0.361,1.807-0.568c0.597-0.206,1.188-0.431,1.771-0.672c0.584-0.24,1.16-0.499,1.729-0.773
			c0.569-0.274,1.13-0.565,1.682-0.872c0.552-0.308,1.095-0.63,1.628-0.968c-0.861,0.726-1.755,1.408-2.681,2.051
			c-0.926,0.642-1.88,1.238-2.861,1.79c-0.982,0.551-1.988,1.056-3.017,1.514c-1.029,0.457-2.077,0.865-3.146,1.225
			c-1.067,0.358-2.149,0.667-3.246,0.924s-2.202,0.462-3.319,0.615c-1.115,0.153-2.236,0.254-3.361,0.302s-2.25,0.042-3.375-0.015
			c-1.124-0.059-2.244-0.169-3.358-0.331c-1.115-0.163-2.219-0.379-3.313-0.646c-1.095-0.267-2.174-0.584-3.239-0.953
			c-1.064-0.368-2.109-0.786-3.134-1.252c-1.025-0.466-2.025-0.98-3.003-1.54c-0.977-0.562-1.925-1.166-2.845-1.815
			c-0.92-0.65-1.808-1.342-2.663-2.074c-0.855-0.733-1.674-1.506-2.457-2.315s-1.526-1.655-2.229-2.535
			c-0.704-0.88-1.364-1.791-1.982-2.732c-0.618-0.942-1.189-1.911-1.716-2.907c-0.527-0.995-1.005-2.014-1.437-3.055
			c-0.432-1.041-0.813-2.1-1.145-3.176c-0.331-1.077-0.612-2.167-0.841-3.27c-0.229-1.103-0.406-2.215-0.531-3.334
			c-0.125-1.119-0.197-2.243-0.217-3.369c-0.02-1.126,0.014-2.251,0.1-3.375c0.086-1.123,0.225-2.24,0.416-3.351
			c0.191-1.11,0.435-2.208,0.728-3.296c0.295-1.088,0.64-2.159,1.034-3.214c0.395-1.055,0.839-2.089,1.331-3.103
			c0.493-1.014,1.03-2.001,1.616-2.965c0.585-0.962,1.213-1.896,1.886-2.8c0.672-0.903,1.386-1.773,2.14-2.61
			c0.755-0.836,1.546-1.636,2.375-2.398c0.83-0.762,1.693-1.484,2.59-2.165c0.897-0.681,1.824-1.319,2.781-1.913
			c0.957-0.594,1.939-1.143,2.948-1.644c1.008-0.502,2.038-0.955,3.089-1.359c1.051-0.406,2.119-0.76,3.203-1.065
			c1.084-0.304,2.181-0.558,3.289-0.759c1.108-0.201,2.223-0.35,3.345-0.446c1.122-0.098,2.246-0.141,3.373-0.132
			c1.126,0.009,2.249,0.071,3.37,0.185c1.12,0.115,2.233,0.282,3.337,0.501c1.104,0.218,2.196,0.489,3.276,0.811
			c1.079,0.321,2.141,0.693,3.186,1.114c1.044,0.422,2.066,0.892,3.066,1.409c1.001,0.518,1.975,1.081,2.922,1.69
			c0.948,0.61,1.864,1.262,2.751,1.957c-2.509-1.48-5.168-2.604-7.978-3.372C303.493,381.216,300.632,380.832,297.72,380.831
			L297.72,380.831z"/>
	</g>
	<path fill="#F7B116" d="M313.237,436.051c0.734-0.735,1.424-1.51,2.068-2.325c0.645-0.814,1.24-1.664,1.787-2.549
		c0.545-0.884,1.038-1.797,1.479-2.738c0.439-0.941,0.823-1.904,1.152-2.891c0.329-0.985,0.6-1.987,0.813-3.004
		c0.212-1.018,0.364-2.043,0.459-3.079c0.094-1.035,0.127-2.072,0.101-3.111c-0.027-1.038-0.114-2.072-0.26-3.101
		c-0.147-1.029-0.352-2.046-0.616-3.051c-0.265-1.005-0.586-1.991-0.965-2.958c-0.378-0.968-0.812-1.911-1.299-2.828
		c-0.488-0.918-1.027-1.804-1.618-2.659c-0.59-0.854-1.229-1.672-1.914-2.454c-0.686-0.78-1.413-1.519-2.185-2.216
		c-0.771-0.696-1.579-1.345-2.426-1.948s-1.725-1.154-2.635-1.656c-0.911-0.5-1.847-0.947-2.809-1.34
		c-0.962-0.392-1.943-0.727-2.944-1.006c-1.001-0.278-2.015-0.498-3.041-0.658c-1.026-0.161-2.059-0.262-3.097-0.303
		c-1.038-0.041-2.075-0.022-3.11,0.057c-1.036,0.079-2.064,0.218-3.084,0.416c-1.019,0.199-2.024,0.455-3.015,0.77
		c-0.989,0.315-1.958,0.686-2.905,1.114c-0.947,0.427-1.867,0.908-2.758,1.441s-1.749,1.118-2.573,1.751
		c-0.823,0.633-1.607,1.312-2.353,2.036c-0.745,0.725-1.446,1.49-2.103,2.295c-0.655,0.805-1.263,1.646-1.822,2.522
		c-0.559,0.876-1.065,1.781-1.52,2.716c-0.454,0.935-0.852,1.893-1.195,2.873c-0.343,0.981-0.628,1.979-0.855,2.993
		c0.081-0.922,0.203-1.839,0.369-2.75c0.167-0.911,0.375-1.812,0.625-2.703c0.251-0.892,0.543-1.77,0.876-2.633
		c0.333-0.863,0.706-1.709,1.118-2.539s0.863-1.637,1.351-2.423c0.488-0.787,1.012-1.548,1.572-2.286
		c0.56-0.737,1.153-1.446,1.78-2.127c0.626-0.682,1.284-1.332,1.971-1.952c0.688-0.62,1.403-1.206,2.146-1.758
		c0.742-0.552,1.51-1.069,2.301-1.55c0.792-0.48,1.604-0.923,2.436-1.327c0.833-0.405,1.683-0.769,2.55-1.093
		c0.867-0.324,1.747-0.608,2.64-0.85c0.894-0.242,1.797-0.44,2.708-0.598c0.912-0.157,1.83-0.271,2.752-0.341
		c0.923-0.071,1.847-0.098,2.773-0.082c0.925,0.016,1.848,0.076,2.768,0.178c0.92,0.104,1.833,0.25,2.738,0.438
		c0.907,0.189,1.802,0.419,2.687,0.692c0.885,0.273,1.754,0.586,2.609,0.941c0.854,0.355,1.691,0.749,2.51,1.182
		c0.817,0.433,1.613,0.903,2.388,1.412c0.773,0.508,1.521,1.051,2.244,1.629c0.724,0.579,1.418,1.189,2.083,1.833
		c0.665,0.643,1.3,1.316,1.901,2.02c0.603,0.704,1.17,1.433,1.704,2.189c0.533,0.757,1.03,1.537,1.491,2.34
		c0.46,0.803,0.883,1.626,1.266,2.469c0.384,0.843,0.727,1.702,1.029,2.577c0.302,0.875,0.563,1.762,0.782,2.662
		c0.22,0.899,0.396,1.807,0.529,2.723c0.135,0.916,0.226,1.837,0.273,2.761c0.048,0.925,0.051,1.85,0.012,2.774
		c-0.04,0.926-0.122,1.846-0.247,2.764c-0.126,0.917-0.295,1.826-0.506,2.728c-0.211,0.901-0.464,1.791-0.758,2.668
		c-0.296,0.878-0.63,1.739-1.006,2.586c-0.375,0.846-0.79,1.673-1.243,2.48c-0.454,0.807-0.944,1.591-1.47,2.352
		c-0.527,0.762-1.089,1.496-1.685,2.205s-1.224,1.388-1.884,2.037c-0.659,0.649-1.348,1.267-2.065,1.852
		c-0.717,0.585-1.461,1.134-2.23,1.648c-0.77,0.516-1.561,0.993-2.375,1.434c-0.814,0.441-1.646,0.843-2.498,1.204
		c-0.853,0.362-1.72,0.685-2.602,0.965c-0.881,0.281-1.775,0.52-2.679,0.717c-0.905,0.196-1.816,0.351-2.735,0.462
		c2.316-0.604,4.513-1.501,6.589-2.691C309.663,439.188,311.547,437.745,313.237,436.051L313.237,436.051z"/>
	<path fill="#323333" d="M229.57,406.437c-0.105-0.076-0.19-0.202-0.254-0.377c-0.063-0.169-0.096-0.333-0.096-0.491
		c0-0.392,0.208-0.587,0.622-0.587c2.319-0.082,4.231-0.274,5.738-0.579c1.513-0.298,3.647-0.83,6.404-1.595l0.789-0.236
		c0.344-0.105,0.753-0.158,1.227-0.158c0.712,0,1.185,0.172,1.419,0.517c0.368,0.55,0.63,0.961,0.788,1.236
		c0.158,0.281,0.353,0.733,0.587,1.358c0.082,0.239,0.123,0.453,0.123,0.64c0,0.579-0.409,0.868-1.227,0.868
		c-0.234,0-0.415-0.015-0.543-0.044c-0.584-0.052-1.034-0.079-1.349-0.079c-1.18,0-2.348,0.152-3.504,0.456
		c-1.157,0.304-2.707,0.783-4.652,1.438c-0.497,0.158-0.943,0.327-1.34,0.508c-0.449,0.187-0.738,0.28-0.867,0.28
		c-0.158,0-0.315-0.046-0.473-0.14s-0.341-0.23-0.552-0.412l-1.419-1.297C230.545,407.292,230.072,406.857,229.57,406.437
		L229.57,406.437z M254.766,414.21c0.105,0.234,0.158,0.482,0.158,0.745c0,0.684-0.449,1.025-1.349,1.025
		c-0.128,0-0.376-0.026-0.745-0.079c-1.156-0.21-2.365-0.316-3.627-0.316c-2.341,0-5.537,0.29-9.584,0.868
		c0.134,0.421,0.222,0.815,0.263,1.183c0.035,0.368,0.042,0.646,0.018,0.833c-0.053,0.315-0.216,0.649-0.491,0.999
		c-0.274,0.357-0.677,0.813-1.209,1.368c-1.39,1.443-2.532,2.532-3.425,3.269c-0.368,0.286-0.368,0.418,0,0.395
		c2.471-0.263,5.046-0.578,7.727-0.946l-1.183-1.972c-0.234-0.397-0.351-0.751-0.351-1.061c0-0.269,0.085-0.473,0.254-0.613
		c0.169-0.146,0.397-0.219,0.684-0.219c0.292,0,0.581,0.053,0.867,0.158c1.606,0.555,3.25,1.464,4.932,2.726
		c0.946,0.707,1.624,1.343,2.033,1.91c0.409,0.566,0.613,1.124,0.613,1.674c0,0.396-0.073,0.807-0.219,1.227
		c-0.146,0.421-0.392,0.973-0.736,1.656c-0.549,1.21-1.139,1.814-1.77,1.814c-0.66,0-1.332-0.66-2.015-1.98
		c-0.415-0.813-0.966-1.785-1.656-2.919c-1.18,0.474-2.832,1.067-4.958,1.779c-1.583,0.555-3.083,1.102-4.503,1.639
		c-1.413,0.537-2.307,0.927-2.681,1.166c-0.309,0.21-0.677,0.315-1.104,0.315c-0.368,0-0.683-0.082-0.946-0.245
		c-0.887-0.603-1.509-1.087-1.866-1.455s-0.718-0.999-1.086-1.893c-0.287-0.708-0.429-1.154-0.429-1.341
		c0-0.182,0.085-0.307,0.254-0.377c0.169-0.064,0.464-0.123,0.885-0.176c0.263-0.023,0.473-0.103,0.631-0.236
		s0.322-0.292,0.491-0.474c0.169-0.181,0.28-0.313,0.333-0.395c1.5-1.734,2.908-3.534,4.223-5.398
		c0.602-0.817,0.981-1.343,1.139-1.578c-3.154,0.52-5.204,0.927-6.15,1.218c-0.497,0.158-0.996,0.342-1.498,0.552
		c-0.444,0.187-0.745,0.28-0.902,0.28c-0.292,0-0.633-0.199-1.025-0.596l-1.025-0.946c-0.841-0.736-1.483-1.326-1.928-1.771
		c-0.239-0.239-0.359-0.559-0.359-0.955c0-0.392,0.21-0.587,0.631-0.587c1.839,0,4.546-0.243,8.121-0.728
		c3.574-0.484,7.975-1.137,13.202-1.954c0.922-0.134,1.968-0.292,3.136-0.473c1.168-0.182,2.372-0.366,3.609-0.552
		c0.473-0.076,0.984-0.114,1.533-0.114c0.789,0,1.303,0.169,1.542,0.508c0.339,0.502,0.602,0.938,0.788,1.306
		C254.199,412.843,254.45,413.421,254.766,414.21L254.766,414.21z M291.385,418.469c1.022,0.362,1.726,0.716,2.111,1.061
		c0.379,0.339,0.569,0.76,0.569,1.262c0,0.315-0.12,0.946-0.359,1.893c-0.287,1.081-0.692,1.621-1.218,1.621
		c-0.45,0-1.04-0.383-1.77-1.147l-2.094-2.208c-0.421-0.421-0.894-0.92-1.419-1.499c-0.187-0.21-0.331-0.447-0.429-0.71
		c-0.105,0-0.292-0.026-0.561-0.079c-0.992-0.181-1.977-0.271-2.952-0.271h-0.867c0.631,0.392,1.078,0.739,1.34,1.043
		s0.394,0.64,0.394,1.008c0,0.415-0.21,1.072-0.63,1.972c-0.397,0.841-0.792,1.262-1.183,1.262c-0.42,0-0.931-0.462-1.533-1.385
		c-0.765-1.051-1.583-2.272-2.453-3.663c-2.359,0.257-4.249,0.532-5.668,0.824c0.887,0.473,1.451,0.909,1.69,1.306
		c0.053-0.21,0.251-0.315,0.596-0.315c0.444,0,0.87,0.09,1.279,0.271s0.887,0.471,1.437,0.868c0.21,0.158,0.526,0.369,0.946,0.631
		c0.287,0.187,0.528,0.392,0.727,0.613s0.298,0.543,0.298,0.964c0,0.21-0.015,0.368-0.043,0.473
		c1.004-0.157,1.728-0.289,2.172-0.394c0.315-0.076,0.672-0.114,1.069-0.114c0.52,0,0.858,0.116,1.016,0.351
		c0.292,0.397,0.497,0.707,0.613,0.929c0.123,0.222,0.26,0.597,0.412,1.122l0.079,0.474c0,0.473-0.313,0.709-0.938,0.709
		c-0.21,0-0.371-0.011-0.482-0.035c-0.497-0.081-1.075-0.122-1.734-0.122c-0.73,0-1.478,0.041-2.243,0.122v2.524
		c2.838-0.21,5.245-0.499,7.219-0.867c0.309-0.082,0.663-0.123,1.06-0.123c0.865,0,1.39,0.199,1.577,0.596
		c0.105,0.204,0.269,0.532,0.491,0.981c0.228,0.45,0.447,1.04,0.657,1.771c0.052,0.263,0.079,0.447,0.079,0.552
		c0,0.638-0.342,0.956-1.025,0.956c-0.158,0-0.447-0.056-0.867-0.167c-0.689-0.21-1.714-0.38-3.075-0.508
		c-0.952-0.105-2.135-0.158-3.548-0.158c-2.155,0-4.43,0.111-6.825,0.333c-2.389,0.222-4.135,0.453-5.239,0.692
		c-0.479,0.105-0.888,0.226-1.227,0.359c-0.392,0.129-0.668,0.192-0.833,0.192c-0.256,0-0.558-0.184-0.902-0.552l-0.666-0.754
		c-0.555-0.631-1.122-1.232-1.7-1.805c-0.181-0.188-0.271-0.427-0.271-0.719c0-0.392,0.208-0.576,0.622-0.553
		c1.08,0.105,2.657,0.158,4.73,0.158c1.735,0,3.548-0.038,5.44-0.114l0.044-2.173l-1.025,0.201l-0.946,0.158
		c-0.368,0.052-0.689,0.111-0.964,0.175c-0.28,0.07-0.473,0.105-0.578,0.105c-0.21,0-0.497-0.146-0.858-0.438
		c-0.239-0.182-0.543-0.482-0.911-0.902c-0.368-0.397-0.657-0.701-0.867-0.912c-0.182-0.187-0.271-0.396-0.271-0.631
		c0-0.315,0.169-0.473,0.508-0.473c1.285,0,3.23-0.117,5.834-0.351c-0.081-1.238-0.292-2.331-0.63-3.278
		c-0.024,0.392-0.234,0.997-0.631,1.814c-0.344,0.789-0.712,1.184-1.104,1.184s-0.891-0.433-1.498-1.298l-0.867-1.306
		c-0.526-0.736-0.894-1.273-1.104-1.612c-0.339,0.129-0.576,0.193-0.709,0.193c-0.21,0-0.5-0.146-0.867-0.438
		c-0.578-0.497-0.879-0.756-0.902-0.78c-1.028-0.946-1.542-1.419-1.542-1.419c-0.082-0.082-0.155-0.202-0.219-0.359
		c-0.064-0.158-0.097-0.304-0.097-0.438c0-0.339,0.184-0.508,0.552-0.508c2.628,0,5.756-0.222,9.383-0.666v-0.99l-1.577,0.237
		c-0.339,0.052-0.655,0.131-0.946,0.237c-0.287,0.105-0.47,0.157-0.552,0.157c-0.187,0-0.385-0.105-0.596-0.315
		c-0.157-0.158-0.412-0.394-0.762-0.71c-0.357-0.315-0.692-0.657-1.008-1.025c-0.134-0.21-0.201-0.395-0.201-0.552
		c0-0.287,0.146-0.418,0.438-0.395c1.185,0.082,2.932-0.05,5.239-0.394v-1.183c-1.232,0.129-2.164,0.245-2.795,0.351
		c-0.105,0.607-0.315,0.911-0.63,0.911c-0.21,0-0.593-0.251-1.148-0.753c-0.467-0.444-0.878-0.739-1.235-0.885
		c-0.356-0.14-0.572-0.237-0.648-0.289c-0.344-0.187-0.59-0.392-0.736-0.614c-0.14-0.228-0.173-0.432-0.097-0.613
		c0.053-0.076,0.079-0.219,0.079-0.43c0-0.368-0.169-0.999-0.508-1.893l-0.359-1.192c-0.292-0.993-0.576-1.814-0.85-2.463
		c-0.274-0.642-0.701-1.253-1.279-1.832c-0.105-0.105-0.138-0.236-0.097-0.394c0.042-0.158,0.19-0.29,0.447-0.395
		c0.263-0.105,0.657-0.158,1.183-0.158c0.449,0,0.963,0.064,1.542,0.193l0.902,0.167c0.684-0.053,1.592-0.184,2.725-0.395
		s2.672-0.515,4.617-0.912l5.791-1.148c0.975-0.181,1.638-0.383,1.989-0.604c0.356-0.228,0.572-0.342,0.648-0.342
		c0.164,0,0.651,0.199,1.463,0.596c0.999,0.45,1.881,0.885,2.646,1.306c0.76,0.42,1.139,0.865,1.139,1.332
		c0,0.111-0.064,0.257-0.193,0.438c-0.502,0.526-0.938,1.282-1.305,2.27c-0.368,0.987-0.804,2.307-1.306,3.961
		c-0.444,1.496-0.771,2.469-0.981,2.918c-0.631,1.314-1.119,1.972-1.463,1.972c-0.151,0-0.295-0.09-0.429-0.271
		c-0.134-0.187-0.344-0.543-0.63-1.069l-0.202-0.351c-0.76-0.082-1.375-0.108-1.849-0.079l-2.129,0.236v0.78
		c1.262-0.287,2.05-0.482,2.366-0.587c0.21-0.076,0.435-0.114,0.674-0.114c0.234,0,0.456,0.043,0.666,0.131
		c0.21,0.094,0.368,0.219,0.473,0.377c0.052,0.052,0.169,0.222,0.35,0.508c0.187,0.292,0.386,0.727,0.596,1.306
		c0.076,0.181,0.114,0.339,0.114,0.473c0,0.368-0.353,0.552-1.06,0.552l-1.139-0.035c-0.397,0-1.411,0.117-3.04,0.351v1.025
		c1.735-0.263,3.3-0.563,4.696-0.903c0.526-0.105,0.931-0.158,1.218-0.158c0.654,0,1.086,0.158,1.296,0.473
		c0.059,0.105,0.184,0.295,0.377,0.57c0.199,0.274,0.371,0.563,0.517,0.868c0.146,0.304,0.283,0.666,0.412,1.086
		c0.082,0.234,0.123,0.43,0.123,0.587h0.114c0.789,0.082,1.408,0.155,1.857,0.219C290.375,418.156,290.86,418.282,291.385,418.469
		L291.385,418.469z M283.772,401.073c-0.421,0-1.877,0.236-4.372,0.709c0,0.105-0.026,0.263-0.079,0.473v2.288l0.351-0.315
		c0.239-0.21,0.449-0.479,0.631-0.806c0.187-0.327,0.292-0.637,0.315-0.929c0.029-0.076,0.059-0.202,0.087-0.377
		c0.023-0.169,0.076-0.3,0.158-0.394c0.076-0.094,0.178-0.14,0.307-0.14c0.082,0,0.202,0.029,0.359,0.087
		c0.497,0.158,0.911,0.5,1.244,1.025c0.327,0.52,0.517,0.9,0.569,1.139c0.053,0.187,0.021,0.397-0.096,0.631
		c-0.117,0.239-0.295,0.423-0.534,0.552c-1.448,0.87-2.579,1.501-3.391,1.893v0.473l1.384-0.236l1.489-0.237l0.202-0.035
		c0.105-0.158,0.236-0.447,0.394-0.868c0.368-0.923,0.637-1.846,0.806-2.769c0.169-0.917,0.269-1.455,0.298-1.613
		c0.023-0.105,0.035-0.225,0.035-0.359C283.93,401.137,283.877,401.073,283.772,401.073L283.772,401.073z M272.226,408.408
		c1.653-0.234,2.6-0.365,2.839-0.395v-2.445c0-1.314-0.026-2.299-0.079-2.953c-1.811,0.368-3.113,0.654-3.907,0.858
		c-0.151,0.053-0.257,0.079-0.315,0.079l0.237,0.797v-0.044c0-0.263,0.251-0.42,0.753-0.473c0.263-0.023,0.578-0.035,0.946-0.035
		c0.392,0,0.718,0.038,0.981,0.114c0.894,0.21,1.34,0.856,1.34,1.937c0,0.158-0.023,0.395-0.07,0.71
		c-0.134,0.76-0.385,1.139-0.753,1.139c-0.292,0-0.66-0.222-1.104-0.666c-0.526-0.526-0.932-0.981-1.218-1.367
		c-0.292-0.379-0.491-0.633-0.596-0.762c-0.134-0.158-0.213-0.289-0.237-0.395l0.587,2.13
		C271.945,407.398,272.145,407.988,272.226,408.408L272.226,408.408z M267.373,424.971c-0.287,1.157-0.955,1.735-2.006,1.735
		c-0.497,0-1.101-0.157-1.813-0.473c-1.524-0.684-2.287-1.973-2.287-3.865c0-0.549,0.064-1.154,0.193-1.814
		c0.105-0.526,0.263-0.932,0.473-1.218c0.21-0.292,0.435-0.438,0.674-0.438c0.292,0,0.555,0.184,0.789,0.552
		c0.21,0.344,0.505,0.628,0.885,0.85c0.379,0.222,0.769,0.333,1.165,0.333c0.421,0,0.804-0.117,1.148-0.351
		c0.21-0.164,0.379-0.246,0.508-0.246c0.134,0,0.103,0.173-0.096,0.517c-0.199,0.339-0.44,0.695-0.727,1.069
		c-0.082,0.105-0.123,0.234-0.123,0.385c0,0.292,0.199,0.716,0.596,1.271c0.234,0.393,0.409,0.713,0.525,0.965
		C267.393,424.496,267.425,424.738,267.373,424.971L267.373,424.971z M313.497,430.852c-0.339-0.923-0.725-1.589-1.156-1.998
		c-0.432-0.403-0.867-0.719-1.306-0.946c-0.432-0.222-0.742-0.386-0.929-0.491c-0.286-0.182-0.429-0.324-0.429-0.43
		c0-0.157,0.21-0.236,0.631-0.236c0.157,0,0.677,0.012,1.56,0.035c0.876,0.029,1.611-0.16,2.207-0.569
		c0.59-0.409,0.885-1.034,0.885-1.876l0.079-17.194c0-1.473-0.059-2.754-0.175-3.848c-0.123-1.086-0.38-2.039-0.771-2.857
		c-0.076-0.134-0.063-0.266,0.035-0.394c0.111-0.129,0.295-0.193,0.552-0.193c0.474,0,0.902,0.096,1.288,0.289
		c0.379,0.199,0.87,0.497,1.472,0.894l0.946,0.587c0.292,0.187,0.528,0.392,0.709,0.614c0.188,0.222,0.281,0.532,0.281,0.929
		c0,0.287-0.027,0.508-0.079,0.666v20.507c0,2.051-0.053,3.482-0.158,4.295c-0.104,0.817-0.379,1.475-0.823,1.972
		c-0.449,0.502-0.943,0.932-1.48,1.288c-0.543,0.351-1.051,0.525-1.524,0.525C314.499,432.42,313.894,431.898,313.497,430.852
		L313.497,430.852z M328.636,420.476c-1.075-2.366-2.532-4.612-4.372-6.739c-0.339-0.375-0.508-0.743-0.508-1.104
		c0-0.292,0.123-0.523,0.368-0.692c0.251-0.175,0.587-0.263,1.008-0.263c0.186,0,0.332,0.015,0.438,0.043
		c0.624,0.082,1.209,0.239,1.753,0.474c0.536,0.239,1.048,0.502,1.532,0.789s0.832,0.482,1.042,0.587
		c1.263,0.712,2.149,1.358,2.664,1.937c0.515,0.578,0.771,1.198,0.771,1.858c0,0.315-0.053,0.684-0.157,1.104
		c-0.105,0.415-0.204,0.763-0.298,1.043c-0.088,0.274-0.158,0.476-0.21,0.605c-0.24,0.712-0.544,1.273-0.911,1.683
		c-0.368,0.409-0.751,0.613-1.148,0.613C329.899,422.413,329.243,421.767,328.636,420.476L328.636,420.476z M307.075,422.492
		c-0.606,0.993-1.264,1.489-1.971,1.489c-0.473,0-1.115-0.248-1.928-0.744c-0.502-0.287-0.917-0.719-1.244-1.298
		c-0.326-0.584-0.49-1.191-0.49-1.822c0-0.993,0.432-1.832,1.297-2.516c1.343-1.051,2.356-1.928,3.04-2.629
		c0.677-0.695,1.253-1.501,1.726-2.418c0.111-0.187,0.243-0.339,0.395-0.456c0.157-0.117,0.317-0.175,0.481-0.175
		c0.182,0,0.345,0.111,0.49,0.333c0.146,0.222,0.22,0.555,0.22,0.999c0,1.314-0.187,2.938-0.561,4.873
		C308.168,420.061,307.683,421.516,307.075,422.492L307.075,422.492z M369.084,417.119c0.291,0.111,0.772,0.421,1.444,0.929
		c0.673,0.514,1.277,1.066,1.814,1.656c0.537,0.596,0.806,1.116,0.806,1.56c0,0.263-0.116,0.473-0.351,0.631
		c-0.532,0.367-1.06,1.145-1.586,2.331c-0.52,1.18-0.925,2.39-1.217,3.628c0.186,0.339,0.423,0.955,0.709,1.849
		c0.053,0.158,0.079,0.354,0.079,0.588c0,0.631-0.433,0.946-1.296,0.946c-0.346,0-0.622-0.026-0.834-0.079
		c-1.652-0.339-2.797-0.497-3.434-0.474l-0.857,0.044c-2.313,0.129-3.853,0.234-4.617,0.315c-0.264,1.392-0.567,2.086-0.911,2.086
		c-0.129,0-0.304-0.09-0.526-0.271c-0.228-0.187-0.47-0.412-0.727-0.675c-0.556-0.525-1.01-0.892-1.367-1.096
		c-0.35-0.216-0.567-0.351-0.648-0.403c-0.555-0.315-0.832-0.668-0.832-1.06c0-0.076,0.026-0.193,0.079-0.351
		c0.081-0.158,0.122-0.357,0.122-0.597c0-0.233-0.052-0.613-0.156-1.139c-0.029-0.105-0.057-0.226-0.079-0.359
		c-0.029-0.129-0.044-0.287-0.044-0.474c-0.13-1.133-0.352-2.368-0.666-3.707l-4.538,2.919c-3.178,1.998-4.987,3.181-5.433,3.549
		c-0.269,0.239-0.624,0.359-1.067,0.359c-0.264,0-0.462-0.041-0.597-0.123c-1.442-0.76-2.547-1.785-3.312-3.075
		c-0.339-0.579-0.508-1.011-0.508-1.298c0-0.269,0.143-0.402,0.43-0.402l0.403,0.078c0.256,0.082,1.062-0.035,2.417-0.351
		s2.968-0.747,4.836-1.297c0.864-1.945,1.624-4.075,2.277-6.389c0.054-0.187,0.174-0.576,0.359-1.166
		c0.182-0.59,0.272-1.095,0.272-1.516c0-0.158-0.026-0.342-0.079-0.552l-0.114-0.482c-1.261,0.263-2.564,0.672-3.907,1.227
		c-0.368,0.158-0.789,0.353-1.262,0.587c-0.392,0.239-0.692,0.359-0.902,0.359c-0.239,0-0.543-0.143-0.911-0.43l-0.98-0.753
		c-0.685-0.45-1.326-0.936-1.928-1.455c-0.081-0.105-0.17-0.246-0.263-0.42c-0.094-0.169-0.141-0.318-0.141-0.447
		c0-0.321,0.173-0.493,0.517-0.517c2.396-0.234,4.339-0.535,5.835-0.902c1.495-0.368,3.691-1.078,6.588-2.13
		c0.55-0.21,1.102-0.315,1.656-0.315c0.525,0,0.905,0.131,1.14,0.395c0.366,0.42,0.649,0.78,0.849,1.078
		c0.199,0.304,0.467,0.813,0.806,1.525c0.158,0.31,0.237,0.572,0.237,0.789c0,0.368-0.173,0.631-0.517,0.789
		c-0.34,0.158-0.786,0.21-1.341,0.158c-0.999-0.082-1.852-0.108-2.559-0.079c0.421,0.309,0.757,0.684,1.008,1.122
		c0.251,0.432,0.414,0.769,0.491,1.008c0.081,0.257,0.122,0.491,0.122,0.701c0,0.344-0.108,0.668-0.324,0.973
		c-0.204,0.304-0.333,0.52-0.385,0.648c-0.053,0.187-0.161,0.464-0.325,0.833c0.397-0.082,0.675-0.123,0.833-0.123
		c0.893,0,1.956,0.236,3.189,0.71l3.196-0.438l0.114-10.727c0.029-1.367-0.015-2.614-0.131-3.742
		c-0.117-1.128-0.388-2.112-0.815-2.953c-0.076-0.134-0.061-0.266,0.044-0.395c0.105-0.134,0.289-0.202,0.553-0.202
		c0.473,0,0.913,0.099,1.322,0.298c0.409,0.199,0.873,0.479,1.393,0.841c0.217,0.164,0.535,0.377,0.955,0.64
		c0.287,0.181,0.528,0.383,0.727,0.604c0.193,0.228,0.29,0.549,0.29,0.964c0,0.111-0.027,0.324-0.079,0.64v4.531
		c0.344-0.053,1.136-0.237,2.374-0.552c0.473-0.158,1.194-0.342,2.164-0.552c0.368-0.082,0.751-0.123,1.147-0.123
		c0.707,0,1.166,0.16,1.376,0.482c0.285,0.392,0.502,0.733,0.647,1.025c0.146,0.287,0.352,0.771,0.613,1.455
		c0.105,0.21,0.158,0.421,0.158,0.631c0,0.526-0.368,0.789-1.104,0.789c-0.263,0-0.473-0.011-0.631-0.035
		c-0.525-0.082-1.01-0.123-1.454-0.123c-0.899,0-2.11,0.21-3.635,0.631c-0.362,0.105-0.695,0.216-0.999,0.333
		c-0.304,0.123-0.523,0.195-0.657,0.219v4.575c0.946-0.21,1.618-0.415,2.016-0.614c0.396-0.193,0.645-0.289,0.743-0.289
		c0.106,0,0.368,0.079,0.789,0.237L369.084,417.119L369.084,417.119z M346.813,407.698c0-1.525-0.367-2.667-1.104-3.426
		c-0.315-0.368-0.473-0.62-0.473-0.754c0-0.105,0.063-0.199,0.192-0.28c0.134-0.076,0.349-0.152,0.639-0.228
		c0.468-0.158,0.99-0.237,1.569-0.237c0.502,0,0.979,0.053,1.428,0.158c0.894,0.182,1.588,0.523,2.085,1.026
		c0.503,0.497,0.753,1.086,0.753,1.77c0,0.502-0.159,1.028-0.481,1.578c-0.315,0.555-0.864,0.833-1.647,0.833
		c-0.502,0-0.847-0.079-1.033-0.237c-0.076-0.053-0.233-0.167-0.474-0.342c-0.233-0.169-0.429-0.254-0.587-0.254
		c-0.157,0-0.273,0.158-0.35,0.473c-0.053,0.21-0.146,0.315-0.28,0.315C346.893,408.093,346.813,407.961,346.813,407.698
		L346.813,407.698z M343.23,416.173c0.129-0.339,0.298-0.593,0.509-0.763c0.21-0.175,0.421-0.263,0.631-0.263
		c0.339,0,0.508,0.251,0.508,0.754c0,0.128,0.015,0.239,0.044,0.333c0.022,0.094,0.076,0.14,0.158,0.14
		c0.21,0,0.75-0.263,1.62-0.789c0.129-0.105,0.225-0.137,0.289-0.096c0.069,0.035,0.104,0.105,0.104,0.21
		c0,0.315-0.157,0.712-0.473,1.192c-0.081,0.099-0.122,0.269-0.122,0.508c0,0.187,0.052,0.596,0.157,1.227
		c0.129,0.841,0.192,1.394,0.192,1.657c0,0.497-0.076,0.876-0.228,1.139c-0.368,0.578-0.814,0.867-1.34,0.867
		c-0.526,0-1.106-0.327-1.743-0.981c-0.625-0.66-0.938-1.49-0.938-2.489C342.6,418.031,342.811,417.148,343.23,416.173
		L343.23,416.173z M350.914,421.974c0.789-0.234,1.641-0.523,2.558-0.867c-0.309-1.052-0.637-1.826-0.98-2.323
		C352.018,419.889,351.492,420.952,350.914,421.974L350.914,421.974z M366.491,422.053l0.069-0.395c0-0.158-0.053-0.236-0.157-0.236
		c-0.1,0-0.164,0-0.193,0c-0.392,0-1.391,0.125-2.996,0.377c-1.606,0.245-3.092,0.515-4.459,0.806l0.674,4.382
		c2.786-0.216,4.77-0.414,5.949-0.596C365.88,424.469,366.251,423.023,366.491,422.053L366.491,422.053z"/>
	<rect x="225.83" y="443.178" fill="#323333" width="23.61" height="0.876"/>
	<rect x="345.158" y="443.178" fill="#323333" width="23.609" height="0.876"/>
	<path fill="#323333" d="M258.763,439.898l-2.838,4.479v3.041h-1.025v-3.041l-2.83-4.479h1.191l2.129,3.62l2.181-3.62H258.763
		L258.763,439.898z M264.632,444.622v-4.724h1.025v4.847c-0.082,1.812-1.107,2.743-3.075,2.796
		c-1.833-0.053-2.792-0.929-2.874-2.629v-5.014h1.025v4.724c0.029,1.374,0.657,2.071,1.884,2.095
		C263.96,446.693,264.632,445.996,264.632,444.622L264.632,444.622z M268.452,439.898l3.776,6.082v-6.082h0.99v7.52h-1.147
		l-3.819-6.082h-0.044v6.082h-0.99v-7.52H268.452L268.452,439.898z M280.279,442.081h-0.946c-0.053-0.958-0.681-1.466-1.884-1.524
		c-1.127,0.028-1.69,0.467-1.69,1.314c0,0.549,0.304,0.864,0.911,0.946l2.129,0.49c1.127,0.274,1.691,0.962,1.691,2.06
		c-0.029,1.396-1.016,2.121-2.961,2.174c-1.069,0-1.822-0.22-2.26-0.657c-0.549-0.409-0.809-1.041-0.78-1.894h0.99
		c0.024,1.151,0.707,1.741,2.05,1.771c1.314-0.029,1.986-0.453,2.015-1.271c0.105-0.689-0.444-1.142-1.647-1.358l-1.559-0.333
		c-1.069-0.298-1.604-0.9-1.604-1.806c0.082-1.479,0.958-2.243,2.628-2.296C279.254,439.697,280.227,440.492,280.279,442.081
		L280.279,442.081z M282.785,442.983h3.942v-3.085h1.025v7.52h-1.025v-3.487h-3.942v3.487h-1.025v-7.52h1.025V442.983
		L282.785,442.983z M290.468,446.515h4.512v0.902h-5.545v-7.52h5.466v0.868h-4.433v2.34h4.1v0.902h-4.1V446.515L290.468,446.515z
		 M297.529,439.898l3.776,6.082v-6.082h0.99v7.52h-1.157l-3.819-6.082h-0.035v6.082h-0.99v-7.52H297.529L297.529,439.898z
		 M309.479,444.253h-2.305v-0.858h3.285v4.022h-0.656l-0.245-0.946c-0.572,0.684-1.394,1.04-2.462,1.069
		c-1.011,0-1.79-0.261-2.34-0.78c-0.823-0.765-1.22-1.82-1.191-3.164c0.193-2.494,1.385-3.794,3.575-3.899
		c1.856,0.105,2.923,0.927,3.197,2.463h-0.981c-0.274-1.041-1.027-1.575-2.26-1.604c-1.56,0.11-2.381,1.139-2.462,3.084
		c0,2.08,0.835,3.12,2.506,3.12c0.602,0,1.121-0.164,1.559-0.49C309.248,445.832,309.507,445.159,309.479,444.253L309.479,444.253z
		 M317.774,440.722h-1.805v2.34h1.805c1.069,0.029,1.589-0.383,1.56-1.235C319.334,441.09,318.814,440.722,317.774,440.722
		L317.774,440.722z M318.187,447.417h-3.25v-7.52h3.328c1.343,0.06,2.042,0.69,2.094,1.894c0,0.736-0.326,1.256-0.98,1.56
		c0.929,0.327,1.393,0.944,1.393,1.85C320.688,446.626,319.827,447.365,318.187,447.417L318.187,447.417z M317.94,443.93h-1.971
		v2.629h2.173c1.04-0.029,1.574-0.482,1.604-1.358C319.746,444.353,319.144,443.93,317.94,443.93L317.94,443.93z M321.919,439.898
		h1.024v6.617h3.819v0.902h-4.844V439.898L321.919,439.898z M333.71,443.675c-0.111-1.969-0.987-3.009-2.628-3.119
		c-1.67,0.081-2.547,1.121-2.628,3.119c0.081,1.946,0.958,2.96,2.628,3.041C332.723,446.612,333.599,445.597,333.71,443.675
		L333.71,443.675z M334.734,443.675c-0.162,2.495-1.381,3.783-3.652,3.865c-2.301-0.082-3.533-1.37-3.697-3.865
		c0.134-2.6,1.367-3.926,3.697-3.979C333.354,439.778,334.572,441.105,334.734,443.675L334.734,443.675z M341.551,444.253h-2.304
		v-0.858h3.285v4.022h-0.657l-0.245-0.946c-0.572,0.684-1.393,1.04-2.462,1.069c-1.01,0-1.79-0.261-2.339-0.78
		c-0.823-0.765-1.221-1.82-1.191-3.164c0.192-2.494,1.384-3.794,3.574-3.899c1.856,0.105,2.923,0.927,3.198,2.463h-0.981
		c-0.275-1.041-1.028-1.575-2.261-1.604c-1.56,0.11-2.38,1.139-2.461,3.084c0,2.08,0.834,3.12,2.505,3.12
		c0.602,0,1.121-0.164,1.559-0.49C341.321,445.832,341.58,445.159,341.551,444.253L341.551,444.253z"/>
</g>
</svg>
