<svg width="875" height="492" xmlns="http://www.w3.org/2000/svg" xmlns:xlink="http://www.w3.org/1999/xlink" overflow="hidden"><defs><clipPath id="clip0"><rect x="254" y="99" width="875" height="492"/></clipPath><clipPath id="clip1"><rect x="273" y="102" width="870" height="505"/></clipPath><clipPath id="clip2"><rect x="273" y="102" width="870" height="505"/></clipPath><clipPath id="clip3"><rect x="273" y="102" width="870" height="505"/></clipPath><clipPath id="clip4"><rect x="273" y="102" width="870" height="505"/></clipPath><clipPath id="clip5"><path d="M452.053 122.67 905.755 122.67 905.755 578.129 452.053 578.129 452.053 122.67"/></clipPath><clipPath id="clip6"><path d="M452.053 122.67 905.755 122.67 905.755 578.129 452.053 578.129 452.053 122.67"/></clipPath></defs><g clip-path="url(#clip0)" transform="translate(-254 -99)"><g clip-path="url(#clip1)"><path d="M-1132.19 34.6016 2038.01 34.6016 2038.01 4216.22-1132.19 4216.22-1132.19 34.6016" fill="#F8F8F8" transform="matrix(1 0 0 1.00141 254 -352.818)"/></g><g clip-path="url(#clip2)"><path d="M-1132.19 234.487 2038.01 234.487 2038.01 4216.22-1132.19 4216.22-1132.19 234.487" fill="#F8F8F8" transform="matrix(1 0 0 1.00141 254 -352.818)"/></g><g clip-path="url(#clip3)"><path d="M-1132.19 34.6016 2038.01 34.6016 2038.01 4216.22-1132.19 4216.22-1132.19 34.6016" fill="#EDEDEE" transform="matrix(1 0 0 1.00141 254 -352.818)"/></g><g clip-path="url(#clip4)"><path d="M-1132.19 34.6016 2038.01 34.6016 2038.01 3672.53-1132.19 3672.53-1132.19 34.6016" fill="#FFFFFF" transform="matrix(1 0 0 1.00141 254 -352.818)"/></g><g clip-path="url(#clip5)"><path d="M218.022 667.219C218.022 671.202 218.141 675.185 218.368 679.162 218.599 683.141 218.946 687.112 219.41 691.068 219.869 695.027 220.447 698.971 221.133 702.892 221.825 706.821 222.626 710.718 223.544 714.598 224.459 718.48 225.485 722.331 226.623 726.144 227.759 729.969 229.01 733.747 230.368 737.498 231.722 741.24 233.187 744.949 234.76 748.609 236.336 752.272 238.008 755.885 239.79 759.451 241.575 763.015 243.455 766.522 245.439 769.984 247.424 773.432 249.505 776.836 251.688 780.171 253.871 783.501 256.144 786.769 258.516 789.977 260.886 793.177 263.349 796.309 265.902 799.37 268.455 802.431 271.091 805.411 273.815 808.318 276.539 811.228 279.348 814.06 282.234 816.801 285.123 819.542 288.088 822.207 291.128 824.775 294.17 827.352 297.287 829.834 300.475 832.227 303.657 834.616 306.908 836.915 310.23 839.123 313.552 841.329 316.929 843.432 320.373 845.439 323.815 847.448 327.31 849.353 330.861 851.158 334.411 852.963 338.014 854.663 341.664 856.261 345.312 857.86 349.005 859.349 352.745 860.733 356.483 862.117 360.253 863.39 364.064 864.549 367.875 865.715 371.714 866.767 375.59 867.709 379.458 868.652 383.353 869.477 387.272 870.197 391.192 870.914 395.127 871.511 399.084 872 403.036 872.489 407.001 872.857 410.975 873.117 414.951 873.379 418.928 873.521 422.915 873.545 426.897 873.571 430.883 873.486 434.86 873.279 438.838 873.075 442.807 872.758 446.769 872.328 450.728 871.889 454.671 871.343 458.601 870.678 462.536 870.016 466.437 869.24 470.318 868.351 474.198 867.467 478.06 866.463 481.883 865.348 485.709 864.241 489.502 863.018 493.252 861.686 497.009 860.355 500.723 858.919 504.393 857.372 508.067 855.817 511.687 854.166 515.262 852.415 518.842 850.656 522.364 848.794 525.834 846.837 529.299 844.875 532.706 842.815 536.058 840.656 539.404 838.501 542.688 836.242 545.911 833.896 549.129 831.547 552.272 829.103 555.346 826.574 558.427 824.04 561.429 821.424 564.354 818.719 567.276 816.018 570.123 813.227 572.886 810.355 575.649 807.486 578.332 804.537 580.932 801.511 583.519 798.487 586.025 795.387 588.435 792.219 590.849 789.043 593.171 785.814 595.396 782.505 597.623 779.199 599.746 775.834 601.784 772.405 603.816 768.974 605.74 765.494 607.577 761.952 609.403 758.408 611.131 754.816 612.748 751.18 614.373 747.539 615.885 743.853 617.295 740.127 618.701 736.396 620.004 732.637 621.194 728.834 622.379 725.027 623.464 721.194 624.435 717.328 625.401 713.457 626.252 709.569 626.994 705.651 627.733 701.739 628.365 697.806 628.891 693.856 629.4 689.9 629.803 685.939 630.087 681.96 630.369 677.985 630.539 674.005 630.592 670.02 630.654 666.04 630.584 662.055 630.415 658.073 630.239 654.093 629.942 650.116 629.543 646.154 629.134 642.192 628.608 638.236 627.984 634.307 627.346 630.374 626.596 626.459 625.733 622.568 624.879 618.675 623.901 614.813 622.814 610.978 621.73 607.141 620.533 603.341 619.227 599.576 617.921 595.813 616.511 592.088 614.993 588.405 613.472 584.722 611.846 581.085 610.112 577.497 608.383 573.908 606.549 570.366 604.611 566.888 602.675 563.403 600.635 559.981 598.507 556.615 603.072 562.054 607.391 567.693 611.428 573.534 615.472 579.377 619.226 585.398 622.71 591.591 626.184 597.787 629.367 604.136 632.25 610.626 635.128 617.123 637.702 623.739 639.968 630.477 642.225 637.208 644.165 644.038 645.784 650.957 647.397 657.875 648.701 664.855 649.66 671.891 650.624 678.937 651.248 686.003 651.56 693.104 651.856 700.202 651.82 707.303 651.457 714.396 651.093 721.495 650.394 728.562 649.359 735.585 648.329 742.615 646.975 749.587 645.291 756.486 643.61 763.396 641.607 770.201 639.287 776.913 636.96 783.631 634.321 790.226 631.382 796.693 628.444 803.157 625.201 809.471 621.668 815.637 618.13 821.802 614.317 827.788 610.222 833.588 606.115 839.394 601.758 844.992 597.142 850.384 592.513 855.779 587.652 860.95 582.547 865.883 577.438 870.821 572.109 875.513 566.56 879.947 561.01 884.387 555.265 888.553 549.325 892.45 543.388 896.342 537.281 899.96 531.001 903.278 524.72 906.604 518.299 909.625 511.738 912.348 505.176 915.061 498.501 917.466 491.71 919.56 484.922 921.652 478.051 923.427 471.095 924.872 464.143 926.32 457.135 927.437 450.077 928.225 443.02 929.009 435.938 929.473 428.835 929.591 421.735 929.715 414.639 929.503 407.557 928.962 400.473 928.421 393.432 927.543 386.435 926.335 379.433 925.132 372.503 923.602 365.647 921.746 358.79 919.888 352.037 917.714 345.386 915.227 338.73 912.733 332.209 909.934 325.819 906.833 319.429 903.727 313.203 900.329 307.132 896.64 301.058 892.95 295.174 888.99 289.478 884.745 283.776 880.505 278.288 876.005 273.01 871.243 267.737 866.487 262.697 861.491 257.892 856.257 253.083 851.029 248.53 845.581 244.237 839.919 239.941 834.27 235.921 828.415 232.174 822.379 228.431 816.337 224.974 810.141 221.809 803.777 218.645 797.419 215.789 790.92 213.232 784.285 210.681 777.661 208.44 770.922 206.52 764.087 204.596 757.239 203.001 750.325 201.731 743.332 200.458 736.344 199.516 729.316 198.903 722.228 198.295 715.149 198.017 708.056 198.07 700.956 198.126 693.85 198.51 686.758 199.231 679.693 199.949 672.623 200.999 665.603 202.376 658.633 203.761 651.664 205.463 644.768 207.487 637.959 209.511 631.148 211.854 624.45 214.512 617.861 217.168 611.267 220.123 604.815 223.384 598.507 226.643 592.19 230.195 586.045 234.035 580.066 237.874 574.088 241.983 568.301 246.364 562.71 237.054 578.547 229.996 595.331 225.189 613.063 220.373 630.796 217.987 648.848 218.022 667.219L218.022 667.219Z" fill="#BED63B" transform="matrix(1 0 0 1.00141 254 -352.818)"/></g><g clip-path="url(#clip6)"><path d="M455.153 491.561C451.786 491.561 448.426 491.659 445.066 491.859 441.704 492.052 438.354 492.344 435.01 492.728 431.666 493.121 428.339 493.608 425.024 494.19 421.715 494.773 418.415 495.45 415.141 496.221 411.865 496.998 408.615 497.866 405.391 498.826 402.165 499.789 398.968 500.839 395.802 501.987 392.642 503.137 389.514 504.375 386.42 505.699 383.33 507.028 380.276 508.446 377.267 509.952 374.255 511.454 371.29 513.046 368.374 514.725 365.453 516.399 362.59 518.16 359.771 520.003 356.956 521.844 354.194 523.77 351.487 525.771 348.783 527.778 346.14 529.857 343.557 532.014 340.969 534.171 338.449 536.401 335.991 538.703 333.535 541.002 331.154 543.373 328.833 545.815 326.516 548.255 324.274 550.761 322.099 553.331 319.925 555.903 317.827 558.533 315.809 561.227 313.786 563.92 311.849 566.669 309.985 569.476 308.124 572.278 306.345 575.135 304.647 578.044 302.951 580.948 301.344 583.906 299.819 586.905 298.291 589.909 296.853 592.949 295.508 596.034 294.155 599.121 292.902 602.238 291.735 605.399 290.563 608.555 289.491 611.746 288.503 614.966 287.522 618.183 286.636 621.433 285.841 624.702 285.044 627.97 284.343 631.263 283.738 634.573 283.133 637.885 282.624 641.212 282.217 644.556 281.801 647.892 281.487 651.247 281.269 654.606 281.052 657.962 280.932 661.328 280.904 664.694 280.884 668.061 280.96 671.424 281.127 674.786 281.3 678.15 281.567 681.507 281.938 684.849 282.302 688.198 282.763 691.528 283.325 694.85 283.883 698.168 284.539 701.468 285.286 704.755 286.037 708.035 286.881 711.296 287.818 714.524 288.758 717.758 289.792 720.956 290.915 724.135 292.04 727.304 293.255 730.442 294.558 733.55 295.869 736.65 297.261 739.714 298.743 742.738 300.228 745.761 301.798 748.732 303.454 751.664 305.11 754.6 306.846 757.479 308.67 760.309 310.496 763.138 312.396 765.911 314.378 768.632 316.361 771.355 318.421 774.014 320.556 776.614 322.695 779.215 324.908 781.75 327.187 784.222 329.474 786.694 331.828 789.097 334.253 791.434 336.677 793.768 339.164 796.032 341.719 798.227 344.276 800.418 346.89 802.534 349.569 804.569 352.244 806.615 354.974 808.576 357.769 810.455 360.56 812.339 363.406 814.133 366.295 815.855 369.193 817.572 372.135 819.202 375.125 820.751 378.11 822.296 381.144 823.753 384.219 825.127 387.29 826.497 390.403 827.777 393.55 828.968 396.699 830.161 399.878 831.257 403.089 832.262 406.299 833.272 409.539 834.182 412.802 835 416.069 835.821 419.352 836.543 422.658 837.17 425.966 837.798 429.29 838.331 432.628 838.768 435.962 839.204 439.306 839.542 442.665 839.783 446.021 840.026 449.383 840.176 452.749 840.213 456.113 840.266 459.479 840.213 462.84 840.064 466.201 839.917 469.556 839.671 472.903 839.331 476.251 838.986 479.589 838.549 482.91 838.012 486.234 837.477 489.544 836.842 492.826 836.12 496.114 835.393 499.371 834.569 502.614 833.651 505.852 832.738 509.063 831.729 512.24 830.625 515.421 829.526 518.566 828.33 521.676 827.044 524.791 825.764 527.86 824.386 530.888 822.923 533.923 821.46 536.907 819.912 539.847 818.278 542.788 816.636 545.682 814.919 548.523 813.122 543.93 816.988 539.17 820.624 534.239 824.048 529.307 827.467 524.225 830.646 518.993 833.586 513.759 836.519 508.399 839.211 502.921 841.653 497.435 844.086 491.854 846.262 486.161 848.175 480.473 850.085 474.71 851.729 468.868 853.1 463.024 854.467 457.132 855.56 451.185 856.376 445.242 857.192 439.27 857.73 433.273 857.984 427.279 858.238 421.286 858.205 415.291 857.904 409.303 857.593 403.333 857.005 397.399 856.142 391.459 855.273 385.576 854.122 379.75 852.703 373.918 851.283 368.165 849.59 362.495 847.624 356.822 845.663 351.254 843.435 345.796 840.953 340.332 838.474 335.004 835.731 329.795 832.749 324.593 829.757 319.54 826.536 314.638 823.077 309.734 819.613 305.004 815.929 300.446 812.023 295.893 808.115 291.529 803.999 287.36 799.688 283.189 795.373 279.227 790.869 275.486 786.18 271.737 781.49 268.216 776.637 264.924 771.621 261.632 766.601 258.587 761.437 255.78 756.131 252.971 750.827 250.424 745.401 248.126 739.857 245.824 734.307 243.797 728.669 242.024 722.934 240.26 717.195 238.765 711.388 237.543 705.515 236.324 699.639 235.377 693.714 234.714 687.75 234.049 681.787 233.665 675.797 233.557 669.799 233.454 663.795 233.634 657.804 234.092 651.817 234.55 645.834 235.29 639.881 236.305 633.961 237.324 628.049 238.621 622.196 240.184 616.402 241.755 610.606 243.592 604.898 245.694 599.278 247.798 593.656 250.164 588.145 252.782 582.743 255.408 577.341 258.273 572.08 261.391 566.945 264.51 561.821 267.853 556.846 271.439 552.028 275.022 547.215 278.825 542.581 282.838 538.121 286.862 533.665 291.075 529.406 295.497 525.343 299.919 521.283 304.517 517.436 309.294 513.811 314.077 510.181 319.015 506.782 324.114 503.619 329.211 500.452 334.445 497.532 339.822 494.864 345.191 492.187 350.678 489.774 356.28 487.62 361.878 485.457 367.568 483.569 373.342 481.947 379.12 480.326 384.965 478.976 390.867 477.9 396.771 476.828 402.709 476.036 408.691 475.522 414.668 475.002 420.657 474.771 426.663 474.818 432.659 474.868 438.644 475.196 444.615 475.803 450.583 476.417 456.512 477.304 462.397 478.476 468.281 479.64 474.098 481.082 479.853 482.798 485.605 484.506 491.26 486.491 496.827 488.734 502.39 490.98 507.838 493.485 513.167 496.239 518.5 498.997 523.688 501.999 528.735 505.243 533.787 508.491 538.667 511.968 543.391 515.67 530.023 507.782 515.856 501.796 500.886 497.704 485.912 493.615 470.67 491.565 455.153 491.561L455.153 491.561Z" fill="#28AAE2" transform="matrix(1 0 0 1.00141 254 -352.818)"/></g><path d="M537.831 785.779C541.745 781.861 545.418 777.735 548.852 773.391 552.285 769.051 555.46 764.525 558.374 759.812 561.278 755.103 563.905 750.239 566.257 745.223 568.599 740.206 570.641 735.077 572.398 729.822 574.15 724.571 575.593 719.233 576.727 713.817 577.855 708.393 578.665 702.929 579.171 697.41 579.67 691.895 579.847 686.37 579.708 680.836 579.56 675.305 579.099 669.793 578.322 664.312 577.536 658.828 576.45 653.413 575.04 648.054 573.63 642.7 571.917 637.445 569.899 632.291 567.884 627.131 565.577 622.108 562.98 617.221 560.377 612.332 557.503 607.609 554.358 603.054 551.215 598.501 547.814 594.141 544.16 589.978 540.506 585.821 536.629 581.886 532.519 578.174 528.41 574.464 524.108 571.005 519.594 567.793 515.084 564.579 510.407 561.642 505.557 558.971 500.703 556.305 495.719 553.927 490.593 551.833 485.469 549.747 480.24 547.959 474.905 546.474 469.574 544.992 464.171 543.825 458.704 542.967 453.234 542.109 447.735 541.571 442.202 541.353 436.673 541.134 431.149 541.235 425.63 541.657 420.111 542.077 414.633 542.818 409.197 543.871 403.769 544.931 398.412 546.298 393.134 547.976 387.865 549.656 382.704 551.631 377.66 553.91 372.612 556.184 367.711 558.746 362.965 561.591 358.218 564.436 353.646 567.545 349.257 570.921 344.873 574.292 340.694 577.909 336.723 581.767 332.752 585.628 329.019 589.708 325.52 593.996 322.028 598.286 318.788 602.765 315.814 607.436 312.834 612.104 310.136 616.925 307.716 621.909 305.297 626.888 303.181 631.993 301.35 637.216 299.521 642.443 298.002 647.758 296.793 653.161 297.222 648.248 297.873 643.364 298.758 638.511 299.643 633.66 300.755 628.861 302.088 624.11 303.424 619.36 304.981 614.682 306.756 610.079 308.529 605.48 310.517 600.971 312.712 596.554 314.908 592.137 317.31 587.83 319.91 583.64 322.512 579.45 325.304 575.392 328.288 571.461 331.272 567.533 334.434 563.754 337.772 560.126 341.109 556.494 344.61 553.027 348.27 549.723 351.937 546.419 355.745 543.3 359.703 540.355 363.656 537.412 367.746 534.659 371.961 532.097 376.178 529.538 380.505 527.181 384.937 525.029 389.375 522.872 393.901 520.934 398.523 519.203 403.145 517.475 407.832 515.963 412.591 514.675 417.351 513.388 422.164 512.328 427.019 511.49 431.879 510.653 436.771 510.05 441.685 509.675 446.603 509.297 451.528 509.152 456.459 509.24 461.387 509.326 466.303 509.643 471.206 510.19 476.107 510.741 480.97 511.518 485.794 512.523 490.628 513.531 495.396 514.759 500.109 516.208 504.822 517.662 509.454 519.333 514.012 521.222 518.563 523.113 523.023 525.212 527.382 527.518 531.739 529.827 535.981 532.331 540.104 535.04 544.227 537.746 548.211 540.639 552.062 543.719 555.919 546.805 559.617 550.057 563.162 553.487 566.705 556.915 570.086 560.501 573.291 564.247 576.502 567.996 579.525 571.881 582.37 575.909 585.21 579.941 587.862 584.096 590.318 588.376 592.766 592.655 595.02 597.039 597.06 601.529 599.106 606.021 600.932 610.597 602.545 615.259 604.151 619.918 605.545 624.645 606.711 629.441 607.884 634.232 608.821 639.069 609.531 643.949 610.251 648.83 610.733 653.738 610.987 658.66 611.243 663.588 611.259 668.516 611.052 673.442 610.837 678.376 610.401 683.28 609.734 688.17 609.064 693.055 608.163 697.902 607.04 702.706 605.917 707.506 604.569 712.246 603.003 716.922 601.426 721.6 599.647 726.191 597.645 730.701 595.645 735.205 593.434 739.613 591.02 743.917 588.598 748.215 585.989 752.393 583.188 756.445 580.379 760.504 577.386 764.415 574.213 768.192 571.036 771.97 567.693 775.587 564.174 779.049 560.663 782.508 556.993 785.797 553.17 788.911 549.35 792.03 545.388 794.953 541.286 797.697 537.187 800.444 532.972 802.988 528.631 805.335 524.294 807.687 519.86 809.826 515.321 811.749 510.778 813.68 506.159 815.397 501.461 816.889 496.768 818.388 492.001 819.656 487.189 820.709 482.365 821.755 477.512 822.576 472.615 823.168 484.956 819.954 496.658 815.171 507.722 808.832 518.787 802.492 528.824 794.802 537.831 785.779L537.831 785.779Z" fill="#F7B116" transform="matrix(1 0 0 1.00141 254 -352.818)"/><path d="M92.0503 627.992C91.491 627.585 91.036 626.917 90.6944 625.983 90.3558 625.082 90.1819 624.208 90.1819 623.369 90.1819 621.283 91.2884 620.243 93.497 620.243 105.852 619.805 116.043 618.781 124.072 617.161 132.132 615.572 143.502 612.736 158.192 608.659L162.393 607.401C164.227 606.839 166.407 606.559 168.928 606.559 172.724 606.559 175.241 607.479 176.489 609.312 178.449 612.242 179.848 614.435 180.689 615.897 181.528 617.392 182.569 619.805 183.815 623.136 184.25 624.409 184.471 625.55 184.471 626.545 184.471 629.627 182.291 631.168 177.936 631.168 176.691 631.168 175.728 631.09 175.04 630.935 171.929 630.655 169.531 630.515 167.852 630.515 161.563 630.515 155.343 631.325 149.183 632.942 143.02 634.563 134.759 637.113 124.395 640.6 121.75 641.442 119.369 642.342 117.253 643.309 114.86 644.302 113.319 644.801 112.633 644.801 111.792 644.801 110.953 644.555 110.111 644.056 109.271 643.556 108.293 642.827 107.171 641.859L99.6086 634.953C97.2458 632.552 94.7244 630.23 92.0503 627.992L92.0503 627.992ZM226.291 669.408C226.852 670.655 227.131 671.976 227.131 673.374 227.131 677.019 224.738 678.839 219.943 678.839 219.26 678.839 217.939 678.697 215.977 678.422 209.815 677.3 203.374 676.738 196.652 676.738 184.178 676.738 167.152 678.281 145.588 681.362 146.303 683.605 146.769 685.702 146.987 687.664 147.176 689.628 147.209 691.107 147.082 692.102 146.801 693.782 145.928 695.558 144.467 697.425 143.008 699.326 140.861 701.751 138.026 704.711 130.618 712.401 124.537 718.204 119.775 722.127 117.816 723.649 117.816 724.355 119.775 724.228 132.939 722.828 146.663 721.148 160.945 719.186L154.645 708.68C153.398 706.564 152.776 704.678 152.776 703.028 152.776 701.595 153.228 700.51 154.129 699.762 155.032 698.98 156.244 698.595 157.772 698.595 159.326 698.595 160.865 698.876 162.393 699.434 170.951 702.39 179.712 707.234 188.672 713.961 193.713 717.726 197.321 721.114 199.501 724.135 201.681 727.153 202.769 730.125 202.769 733.053 202.769 735.166 202.381 737.352 201.601 739.589 200.822 741.829 199.515 744.771 197.68 748.413 194.753 754.86 191.614 758.081 188.253 758.081 184.737 758.081 181.157 754.562 177.516 747.528 175.306 743.2 172.366 738.017 168.694 731.976 162.405 734.499 153.603 737.663 142.275 741.456 133.84 744.413 125.845 747.326 118.282 750.187 110.752 753.049 105.992 755.127 103.998 756.399 102.352 757.517 100.39 758.081 98.1166 758.081 96.1575 758.081 94.4765 757.643 93.0752 756.775 88.3468 753.564 85.0332 750.984 83.1346 749.022 81.2345 747.06 79.3071 743.699 77.3465 738.938 75.8197 735.166 75.0594 732.788 75.0594 731.793 75.0594 730.825 75.5114 730.159 76.4123 729.783 77.3148 729.44 78.8884 729.127 81.1271 728.847 82.53 728.725 83.6471 728.303 84.4875 727.591 85.328 726.878 86.2017 726.033 87.1027 725.065 88.0021 724.102 88.5947 723.399 88.8774 722.962 96.871 713.72 104.372 704.132 111.375 694.203 114.58 689.847 116.603 687.046 117.443 685.797 100.639 688.566 89.7178 690.736 84.6765 692.286 82.0311 693.129 79.3691 694.107 76.695 695.228 74.3262 696.223 72.7269 696.722 71.8864 696.722 70.3309 696.722 68.5124 695.664 66.4264 693.549L60.9663 688.506C56.4827 684.583 53.0619 681.439 50.6946 679.073 49.4233 677.797 48.7824 676.095 48.7824 673.983 48.7824 671.894 49.8995 670.856 52.1428 670.856 61.9428 670.856 76.367 669.563 95.4122 666.98 114.456 664.4 137.902 660.921 165.754 656.568 170.668 655.851 176.242 655.012 182.464 654.045 188.685 653.077 195.099 652.098 201.695 651.105 204.216 650.697 206.937 650.497 209.864 650.497 214.066 650.497 216.805 651.399 218.081 653.207 219.886 655.88 221.284 658.202 222.279 660.164 223.273 662.123 224.611 665.204 226.291 669.408L226.291 669.408ZM421.404 692.099C426.85 694.029 430.599 695.916 432.652 697.75 434.673 699.556 435.683 701.798 435.683 704.472 435.683 706.154 435.049 709.515 433.772 714.556 432.244 720.317 430.084 723.194 427.284 723.194 424.89 723.194 421.744 721.154 417.856 717.082L406.701 705.312C404.458 703.071 401.937 700.41 399.139 697.329 398.144 696.209 397.378 694.947 396.852 693.549 396.288 693.549 395.296 693.407 393.861 693.127 388.575 692.16 383.33 691.679 378.134 691.679L373.513 691.679C376.874 693.766 379.254 695.617 380.653 697.239 382.054 698.858 382.752 700.646 382.752 702.608 382.752 704.817 381.634 708.318 379.395 713.113 377.28 717.593 375.176 719.835 373.09 719.835 370.851 719.835 368.13 717.372 364.924 712.456 360.847 706.856 356.489 700.351 351.851 692.94 339.282 694.306 329.213 695.775 321.655 697.329 326.382 699.852 329.385 702.171 330.661 704.288 330.942 703.167 332.002 702.608 333.835 702.608 336.201 702.608 338.47 703.084 340.651 704.056 342.83 705.022 345.378 706.561 348.305 708.679 349.427 709.518 351.108 710.642 353.346 712.042 354.873 713.035 356.161 714.13 357.219 715.31 358.279 716.49 358.806 718.204 358.806 720.446 358.806 721.563 358.729 722.406 358.577 722.962 363.928 722.125 367.783 721.422 370.15 720.864 371.829 720.459 373.729 720.258 375.844 720.258 378.613 720.258 380.418 720.876 381.259 722.125 382.814 724.241 383.904 725.891 384.526 727.071 385.18 728.253 385.913 730.252 386.72 733.05L387.139 735.574C387.139 738.091 385.475 739.352 382.146 739.352 381.026 739.352 380.173 739.294 379.578 739.164 376.931 738.732 373.853 738.513 370.337 738.513 366.448 738.513 362.463 738.732 358.389 739.164L358.389 752.613C373.512 751.495 386.33 749.954 396.85 747.994 398.496 747.555 400.384 747.335 402.499 747.335 407.105 747.335 409.905 748.397 410.898 750.512 411.46 751.599 412.331 753.348 413.511 755.74 414.725 758.138 415.892 761.28 417.014 765.172 417.29 766.572 417.431 767.556 417.431 768.111 417.431 771.511 415.611 773.207 411.971 773.207 411.132 773.207 409.59 772.909 407.348 772.318 403.678 771.199 398.215 770.292 390.965 769.612 385.894 769.048 379.591 768.768 372.064 768.768 360.578 768.768 348.459 769.359 335.698 770.543 322.97 771.724 313.667 772.959 307.787 774.228 305.232 774.792 303.058 775.432 301.252 776.145 299.166 776.833 297.69 777.172 296.814 777.172 295.449 777.172 293.843 776.192 292.007 774.23L288.46 770.217C285.505 766.855 282.483 763.648 279.402 760.601 278.438 759.602 277.956 758.326 277.956 756.772 277.956 754.686 279.062 753.703 281.272 753.824 287.026 754.388 295.429 754.671 306.476 754.671 315.718 754.671 325.381 754.467 335.462 754.063L335.695 742.485 330.235 743.557 325.195 744.402C323.236 744.677 321.52 744.995 320.058 745.332 318.565 745.705 317.54 745.894 316.978 745.894 315.859 745.894 314.332 745.113 312.405 743.557 311.129 742.588 309.512 740.986 307.551 738.749 305.592 736.629 304.05 735.013 302.93 733.889 301.962 732.895 301.483 731.778 301.483 730.528 301.483 728.846 302.383 728.007 304.19 728.007 311.037 728.007 321.398 727.383 335.278 726.141 334.844 719.543 333.724 713.719 331.917 708.677 331.79 710.765 330.67 713.986 328.555 718.341 326.722 722.547 324.759 724.648 322.673 724.648 320.587 724.648 317.928 722.344 314.692 717.735L310.071 710.777C307.268 706.856 305.311 703.993 304.189 702.185 302.381 702.871 301.122 703.213 300.407 703.213 299.291 703.213 297.746 702.431 295.787 700.879 292.707 698.232 291.103 696.849 290.982 696.722 285.504 691.679 282.764 689.16 282.764 689.16 282.329 688.725 281.938 688.084 281.599 687.244 281.256 686.405 281.085 685.625 281.085 684.905 281.085 683.102 282.066 682.199 284.024 682.199 298.029 682.199 314.692 681.019 334.015 678.65L334.015 673.373 325.614 674.637C323.807 674.916 322.126 675.335 320.572 675.899 319.047 676.457 318.067 676.736 317.631 676.736 316.636 676.736 315.579 676.178 314.458 675.057 313.62 674.216 312.264 672.956 310.399 671.272 308.497 669.595 306.709 667.774 305.029 665.813 304.317 664.693 303.958 663.71 303.958 662.873 303.958 661.343 304.736 660.643 306.293 660.769 312.606 661.203 321.915 660.504 334.204 658.667L334.204 652.365C327.639 653.05 322.673 653.672 319.311 654.231 318.752 657.466 317.632 659.086 315.954 659.086 314.832 659.086 312.792 657.747 309.838 655.073 307.35 652.706 305.159 651.136 303.256 650.358 301.358 649.61 300.209 649.096 299.804 648.816 297.97 647.82 296.659 646.727 295.884 645.546 295.136 644.331 294.963 643.244 295.367 642.278 295.648 641.872 295.789 641.111 295.789 639.987 295.789 638.03 294.885 634.667 293.08 629.904L291.169 623.553C289.612 618.263 288.102 613.888 286.64 610.431 285.18 607.01 282.906 603.755 279.826 600.673 279.263 600.115 279.091 599.414 279.312 598.573 279.533 597.73 280.325 597.032 281.691 596.471 283.094 595.908 285.194 595.63 287.995 595.63 290.389 595.63 293.13 595.972 296.209 596.657L301.016 597.546C304.659 597.263 309.496 596.564 315.532 595.443 321.568 594.321 329.772 592.701 340.13 590.586L370.986 584.47C376.183 583.504 379.715 582.431 381.582 581.248 383.482 580.035 384.631 579.428 385.035 579.428 385.912 579.428 388.507 580.488 392.832 582.603 398.155 584.997 402.854 587.321 406.93 589.562 410.976 591.801 412.997 594.168 412.997 596.658 412.997 597.252 412.657 598.029 411.971 598.994 409.297 601.795 406.977 605.825 405.017 611.087 403.057 616.347 400.735 623.38 398.059 632.191 395.697 640.163 393.955 645.345 392.832 647.741 389.473 654.746 386.875 658.247 385.035 658.247 384.228 658.247 383.466 657.764 382.748 656.799 382.036 655.803 380.914 653.904 379.39 651.102L378.316 649.236C374.267 648.801 370.986 648.659 368.467 648.816L357.124 650.075 357.124 654.231C363.846 652.704 368.047 651.661 369.727 651.103 370.847 650.695 372.047 650.495 373.32 650.495 374.567 650.495 375.749 650.728 376.869 651.198 377.988 651.697 378.827 652.365 379.39 653.206 379.669 653.486 380.288 654.386 381.254 655.915 382.25 657.466 383.31 659.789 384.429 662.873 384.834 663.837 385.033 664.676 385.033 665.391 385.033 667.353 383.154 668.333 379.39 668.333L373.318 668.146C371.205 668.146 365.802 668.768 357.122 670.015L357.122 675.477C366.366 674.079 374.706 672.475 382.142 670.667 384.944 670.106 387.103 669.825 388.63 669.825 392.119 669.825 394.421 670.667 395.539 672.348 395.854 672.909 396.519 673.922 397.547 675.383 398.607 676.847 399.52 678.384 400.301 680.006 401.08 681.626 401.808 683.554 402.496 685.796 402.93 687.043 403.148 688.084 403.148 688.923L403.752 688.923C407.955 689.359 411.253 689.747 413.649 690.092 416.021 690.436 418.604 691.106 421.404 692.099L421.404 692.099ZM380.842 599.414C378.6 599.414 370.838 600.673 357.547 603.196 357.547 603.757 357.41 604.597 357.128 605.716L357.128 617.904 358.995 616.225C360.27 615.103 361.388 613.67 362.357 611.93 363.35 610.187 363.91 608.534 364.037 606.98 364.191 606.573 364.351 605.905 364.504 604.972 364.629 604.071 364.912 603.371 365.343 602.873 365.751 602.374 366.291 602.124 366.978 602.124 367.414 602.124 368.053 602.278 368.894 602.591 371.539 603.432 373.749 605.252 375.521 608.056 377.264 610.822 378.275 612.848 378.553 614.124 378.834 615.12 378.663 616.239 378.041 617.487 377.421 618.76 376.465 619.741 375.197 620.429 367.482 625.064 361.456 628.428 357.131 630.515L357.131 633.036 364.505 631.775 372.441 630.515 373.515 630.329C374.074 629.488 374.774 627.946 375.613 625.704 377.575 620.789 379.008 615.87 379.909 610.951 380.808 606.064 381.342 603.201 381.496 602.357 381.62 601.798 381.684 601.16 381.684 600.445 381.682 599.754 381.401 599.414 380.842 599.414L380.842 599.414ZM319.318 638.495C328.127 637.25 333.17 636.549 334.445 636.392L334.445 623.366C334.445 616.362 334.304 611.119 334.023 607.631 324.373 609.59 317.437 611.119 313.204 612.204 312.397 612.487 311.838 612.627 311.525 612.627L312.784 616.875 312.784 616.641C312.784 615.242 314.127 614.402 316.799 614.121 318.199 613.995 319.88 613.933 321.839 613.933 323.925 613.933 325.665 614.136 327.066 614.542 331.826 615.66 334.209 619.103 334.209 624.859 334.209 625.7 334.083 626.962 333.834 628.643 333.119 632.691 331.78 634.712 329.819 634.712 328.267 634.712 326.304 633.532 323.939 631.163 321.138 628.36 318.974 625.934 317.451 623.877 315.897 621.857 314.837 620.506 314.278 619.817 313.561 618.976 313.144 618.278 313.016 617.714L316.143 629.062C317.824 633.112 318.887 636.256 319.318 638.495L319.318 638.495ZM293.462 726.745C291.934 732.909 288.371 735.988 282.772 735.988 280.127 735.988 276.905 735.151 273.111 733.471 264.987 729.83 260.926 722.961 260.926 712.878 260.926 709.95 261.267 706.729 261.954 703.211 262.513 700.409 263.353 698.248 264.475 696.72 265.597 695.166 266.792 694.388 268.068 694.388 269.622 694.388 271.023 695.367 272.268 697.328 273.388 699.161 274.96 700.675 276.981 701.858 279.003 703.039 281.077 703.633 283.191 703.633 285.431 703.633 287.472 703.01 289.305 701.766 290.424 700.891 291.328 700.456 292.013 700.456 292.728 700.456 292.558 701.378 291.5 703.211 290.441 705.019 289.153 706.913 287.626 708.912 287.19 709.469 286.973 710.154 286.973 710.961 286.973 712.518 288.031 714.775 290.147 717.732 291.393 719.821 292.329 721.529 292.947 722.87 293.568 724.21 293.739 725.502 293.462 726.745L293.462 726.745ZM539.217 758.08C537.411 753.161 535.356 749.613 533.056 747.433 530.756 745.285 528.433 743.602 526.099 742.39 523.8 741.211 522.143 740.334 521.148 739.775 519.626 738.806 518.866 738.046 518.866 737.485 518.866 736.647 519.983 736.226 522.226 736.226 523.065 736.226 525.834 736.288 530.536 736.413 535.204 736.569 539.123 735.56 542.295 733.379 545.439 731.199 547.008 727.869 547.008 723.384L547.43 631.772C547.43 623.928 547.118 617.099 546.499 611.271 545.843 605.485 544.476 600.407 542.39 596.052 541.982 595.337 542.048 594.636 542.574 593.952 543.17 593.263 544.148 592.923 545.516 592.923 548.039 592.923 550.323 593.435 552.377 594.465 554.399 595.523 557.014 597.113 560.22 599.228L565.263 602.354C566.817 603.352 568.077 604.443 569.04 605.627 570.04 606.807 570.537 608.46 570.537 610.574 570.537 612.103 570.392 613.283 570.115 614.122L570.115 723.384C570.115 734.31 569.837 741.938 569.273 746.268 568.717 750.624 567.254 754.124 564.886 756.773 562.495 759.448 559.86 761.736 557 763.635 554.107 765.505 551.402 766.436 548.878 766.436 544.552 766.434 541.327 763.65 539.217 758.08L539.217 758.08ZM619.874 702.791C614.146 690.182 606.383 678.215 596.58 666.888 594.776 664.892 593.874 662.93 593.874 661 593.874 659.446 594.531 658.214 595.837 657.312 597.175 656.379 598.963 655.913 601.208 655.913 602.195 655.913 602.975 655.99 603.538 656.143 606.863 656.578 609.979 657.419 612.877 658.666 615.735 659.943 618.462 661.342 621.041 662.87 623.623 664.397 625.473 665.435 626.593 665.997 633.32 669.793 638.046 673.231 640.788 676.316 643.53 679.394 644.895 682.698 644.895 686.216 644.895 687.894 644.612 689.856 644.056 692.098 643.494 694.305 642.966 696.161 642.467 697.653 641.999 699.116 641.625 700.192 641.349 700.877 640.068 704.673 638.451 707.662 636.495 709.843 634.533 712.024 632.495 713.111 630.377 713.111 626.608 713.113 623.112 709.669 619.874 702.791L619.874 702.791ZM504.998 713.534C501.767 718.827 498.267 721.469 494.499 721.469 491.983 721.469 488.556 720.148 484.229 717.504 481.554 715.974 479.344 713.673 477.601 710.59 475.861 707.477 474.987 704.241 474.987 700.879 474.987 695.586 477.286 691.12 481.895 687.475 489.048 681.876 494.453 677.206 498.093 673.47 501.701 669.766 504.77 665.473 507.286 660.584 507.882 659.588 508.583 658.776 509.389 658.155 510.227 657.534 511.082 657.222 511.954 657.222 512.922 657.222 513.791 657.815 514.568 658.997 515.348 660.176 515.737 661.951 515.737 664.318 515.737 671.325 514.743 679.974 512.751 690.284 510.822 700.584 508.236 708.334 504.998 713.534L504.998 713.534ZM835.385 684.905C836.938 685.501 839.501 687.148 843.083 689.857 846.667 692.596 849.886 695.54 852.751 698.681 855.614 701.86 857.043 704.628 857.043 706.995 857.043 708.393 856.424 709.515 855.176 710.36 852.34 712.314 849.53 716.458 846.726 722.78 843.958 729.065 841.798 735.512 840.242 742.107 841.231 743.914 842.495 747.199 844.02 751.959 844.301 752.802 844.441 753.842 844.441 755.089 844.441 758.453 842.138 760.131 837.538 760.131 835.694 760.131 834.223 759.993 833.094 759.712 824.291 757.907 818.192 757.062 814.8 757.189L810.231 757.424C797.905 758.108 789.706 758.671 785.631 759.103 784.227 766.518 782.608 770.218 780.777 770.218 780.091 770.218 779.159 769.739 777.971 768.771 776.76 767.777 775.469 766.573 774.102 765.174 771.139 762.374 768.72 760.423 766.817 759.337 764.956 758.185 763.794 757.47 763.363 757.189 760.407 755.508 758.928 753.629 758.928 751.543 758.928 751.138 759.068 750.514 759.349 749.676 759.782 748.833 760.001 747.772 760.001 746.496 760.001 745.255 759.724 743.228 759.168 740.43 759.011 739.866 758.866 739.226 758.748 738.513 758.59 737.828 758.513 736.983 758.513 735.988 757.82 729.952 756.64 723.372 754.964 716.24L730.785 731.792C713.856 742.435 704.21 748.738 701.842 750.7 700.41 751.976 698.515 752.615 696.153 752.615 694.747 752.615 693.692 752.397 692.973 751.959 685.286 747.912 679.403 742.448 675.329 735.574 673.524 732.489 672.622 730.19 672.622 728.658 672.622 727.228 673.383 726.515 674.913 726.515L677.063 726.934C678.425 727.367 682.718 726.745 689.942 725.064 697.162 723.384 705.752 721.083 715.706 718.152 720.312 707.792 724.359 696.445 727.841 684.116 728.125 683.123 728.766 681.049 729.754 677.905 730.723 674.764 731.205 672.07 731.205 669.826 731.205 668.984 731.066 668.006 730.787 666.889L730.177 664.317C723.461 665.719 716.514 667.899 709.361 670.856 707.398 671.696 705.157 672.735 702.64 673.983 700.552 675.259 698.951 675.9 697.83 675.9 696.554 675.9 694.936 675.135 692.976 673.61L687.752 669.595C684.104 667.201 680.686 664.61 677.48 661.844 677.051 661.284 676.574 660.534 676.082 659.605 675.581 658.701 675.332 657.907 675.332 657.222 675.332 655.508 676.253 654.594 678.085 654.467 690.846 653.219 701.201 651.617 709.172 649.657 717.14 647.694 728.841 643.914 744.272 638.31 747.203 637.19 750.143 636.629 753.099 636.629 755.898 636.629 757.919 637.329 759.171 638.733 761.122 640.971 762.631 642.886 763.692 644.475 764.752 646.094 766.18 648.804 767.985 652.598 768.827 654.247 769.249 655.647 769.249 656.802 769.249 658.764 768.328 660.164 766.498 661.003 764.687 661.845 762.309 662.125 759.352 661.845 754.03 661.411 749.487 661.269 745.72 661.426 747.962 663.074 749.752 665.066 751.09 667.403 752.426 669.706 753.297 671.497 753.706 672.771 754.139 674.141 754.356 675.386 754.356 676.509 754.356 678.343 753.78 680.071 752.63 681.691 751.54 683.313 750.855 684.459 750.579 685.147 750.299 686.14 749.722 687.62 748.846 689.582 750.961 689.148 752.441 688.928 753.286 688.928 758.042 688.928 763.709 690.187 770.277 692.711L787.31 690.374 787.915 633.223C788.074 625.939 787.839 619.294 787.218 613.285 786.598 607.276 785.155 602.032 782.877 597.552 782.47 596.833 782.552 596.135 783.109 595.449 783.672 594.732 784.65 594.374 786.053 594.374 788.574 594.374 790.919 594.902 793.1 595.961 795.278 597.024 797.75 598.516 800.518 600.445 801.674 601.317 803.372 602.452 805.606 603.855 807.137 604.821 808.42 605.893 809.479 607.076 810.51 608.29 811.023 610.003 811.023 612.21 811.023 612.804 810.875 613.939 810.602 615.62L810.602 639.76C812.434 639.479 816.653 638.499 823.251 636.82 825.768 635.981 829.615 635 834.779 633.876 836.743 633.441 838.782 633.225 840.895 633.225 844.661 633.225 847.105 634.078 848.225 635.793 849.746 637.878 850.902 639.699 851.676 641.255 852.456 642.783 853.548 645.365 854.943 649.005 855.505 650.128 855.786 651.248 855.786 652.371 855.786 655.174 853.826 656.572 849.9 656.572 848.502 656.572 847.383 656.513 846.538 656.385 843.742 655.95 841.16 655.732 838.791 655.732 834.001 655.732 827.547 656.852 819.424 659.092 817.493 659.655 815.72 660.244 814.101 660.867 812.485 661.52 811.312 661.907 810.6 662.034L810.6 686.411C815.643 685.288 819.221 684.199 821.339 683.138 823.451 682.112 824.772 681.599 825.298 681.599 825.865 681.599 827.26 682.021 829.502 682.86L835.385 684.905 835.385 684.905ZM716.727 634.714C716.727 626.589 714.771 620.507 710.848 616.456 709.167 614.496 708.33 613.156 708.33 612.441 708.33 611.88 708.667 611.382 709.355 610.946 710.068 610.541 711.212 610.138 712.756 609.732 715.25 608.893 718.033 608.47 721.118 608.47 723.795 608.47 726.33 608.753 728.726 609.311 733.485 610.278 737.187 612.101 739.834 614.777 742.514 617.424 743.847 620.566 743.847 624.208 743.847 626.884 742.998 629.685 741.282 632.614 739.601 635.57 736.678 637.051 732.504 637.051 729.828 637.051 727.992 636.628 726.997 635.789 726.592 635.508 725.756 634.9 724.476 633.966 723.23 633.065 722.188 632.613 721.346 632.613 720.509 632.613 719.891 633.453 719.484 635.134 719.203 636.254 718.703 636.814 717.991 636.814 717.15 636.815 716.727 636.115 716.727 634.714L716.727 634.714ZM697.638 679.865C698.323 678.057 699.225 676.704 700.35 675.802 701.468 674.872 702.591 674.404 703.709 674.404 705.513 674.404 706.416 675.743 706.416 678.42 706.416 679.103 706.493 679.693 706.649 680.195 706.768 680.694 707.055 680.94 707.492 680.94 708.609 680.94 711.489 679.537 716.125 676.736 716.812 676.178 717.321 676.006 717.666 676.224 718.034 676.411 718.222 676.783 718.222 677.344 718.222 679.025 717.384 681.14 715.703 683.694 715.273 684.222 715.052 685.129 715.052 686.405 715.052 687.398 715.33 689.578 715.891 692.938 716.577 697.422 716.916 700.363 716.916 701.766 716.916 704.411 716.509 706.433 715.703 707.835 713.743 710.916 711.364 712.456 708.564 712.456 705.761 712.456 702.669 710.715 699.276 707.229 695.948 703.713 694.274 699.292 694.274 693.967 694.274 689.765 695.398 685.062 697.638 679.865L697.638 679.865ZM738.575 710.777C742.779 709.53 747.317 707.99 752.204 706.156 750.559 700.552 748.81 696.428 746.978 693.779 744.455 699.663 741.654 705.326 738.575 710.777L738.575 710.777ZM821.572 711.197 821.941 709.095C821.941 708.254 821.659 707.835 821.103 707.835 820.57 707.835 820.229 707.835 820.071 707.835 817.983 707.835 812.662 708.502 804.108 709.843 795.547 711.149 787.634 712.583 780.349 714.137L783.939 737.483C798.782 736.333 809.352 735.275 815.638 734.307 818.314 724.069 820.29 716.363 821.572 711.197L821.572 711.197Z" fill="#323333" transform="matrix(1 0 0 1.00141 254 -352.818)"/><path d="M72.1192 823.752 197.913 823.752 197.913 828.42 72.1192 828.42Z" fill="#323333" transform="matrix(1 0 0 1.00141 254 -352.818)"/><path d="M707.908 823.752 833.701 823.752 833.701 828.42 707.908 828.42Z" fill="#323333" transform="matrix(1 0 0 1.00141 254 -352.818)"/><path d="M247.588 806.274 232.466 830.138 232.466 846.342 227.003 846.342 227.003 830.138 211.929 806.274 218.277 806.274 229.618 825.564 241.239 806.274 247.588 806.274 247.588 806.274ZM278.863 831.443 278.863 806.274 284.324 806.274 284.324 832.099C283.892 841.751 278.427 846.714 267.941 846.996 258.173 846.712 253.065 842.046 252.631 832.988L252.631 806.272 258.091 806.272 258.091 831.441C258.245 838.761 261.594 842.478 268.129 842.603 275.283 842.479 278.863 838.762 278.863 831.443L278.863 831.443ZM299.214 806.274 319.331 838.681 319.331 806.274 324.607 806.274 324.607 846.342 318.491 846.342 298.142 813.935 297.908 813.935 297.908 846.342 292.631 846.342 292.631 806.274 299.214 806.274 299.214 806.274ZM362.227 817.905 357.187 817.905C356.906 812.8 353.561 810.092 347.15 809.781 341.143 809.934 338.144 812.269 338.144 816.787 338.144 819.709 339.763 821.39 342.996 821.827L354.338 824.441C360.345 825.903 363.349 829.565 363.349 835.414 363.195 842.854 357.934 846.715 347.572 846.998 341.877 846.998 337.861 845.825 335.53 843.495 332.602 841.317 331.222 837.949 331.373 833.406L336.649 833.406C336.774 839.542 340.414 842.683 347.572 842.839 354.574 842.682 358.152 840.425 358.306 836.068 358.867 832.395 355.94 829.987 349.531 828.832L341.224 827.058C335.53 825.47 332.679 822.26 332.679 817.436 333.114 809.559 337.782 805.485 346.683 805.204 356.766 805.204 361.948 809.438 362.227 817.905L362.227 817.905ZM375.58 822.712 396.585 822.712 396.585 806.274 402.047 806.274 402.047 846.342 396.585 846.342 396.585 827.759 375.58 827.759 375.58 846.342 370.118 846.342 370.118 806.274 375.58 806.274 375.58 822.712 375.58 822.712ZM416.517 841.532 440.553 841.532 440.553 846.342 411.008 846.342 411.008 806.274 440.135 806.274 440.135 810.903 416.517 810.903 416.517 823.368 438.36 823.368 438.36 828.178 416.517 828.178 416.517 841.532 416.517 841.532ZM454.138 806.274 474.254 838.681 474.254 806.274 479.531 806.274 479.531 846.342 473.365 846.342 453.015 813.935 452.826 813.935 452.826 846.342 447.554 846.342 447.554 806.274 454.138 806.274 454.138 806.274ZM517.805 829.482 505.525 829.482 505.525 824.908 523.03 824.908 523.03 846.342 519.534 846.342 518.228 841.299C515.179 844.939 510.804 846.841 505.11 846.998 499.724 846.998 495.571 845.607 492.642 842.839 488.258 838.764 486.143 833.14 486.296 825.981 487.328 812.692 493.674 805.769 505.344 805.205 515.238 805.769 520.919 810.145 522.38 818.329L517.151 818.329C515.69 812.78 511.678 809.935 505.111 809.784 496.802 810.373 492.425 815.853 491.992 826.216 491.992 837.3 496.443 842.841 505.344 842.841 508.55 842.841 511.318 841.968 513.648 840.227 516.576 837.89 517.957 834.304 517.805 829.482L517.805 829.482ZM562.005 810.668 552.39 810.668 552.39 823.133 562.005 823.133C567.703 823.29 570.47 821.093 570.313 816.552 570.313 812.629 567.545 810.668 562.005 810.668L562.005 810.668ZM564.202 846.34 546.886 846.34 546.886 806.272 564.617 806.272C571.77 806.591 575.495 809.955 575.773 816.364 575.773 820.285 574.033 823.055 570.549 824.672 575.495 826.415 577.967 829.703 577.967 834.528 577.533 842.126 572.942 846.059 564.202 846.34L564.202 846.34ZM562.891 827.757 552.39 827.757 552.39 841.766 563.966 841.766C569.509 841.609 572.355 839.196 572.511 834.528 572.511 830.011 569.3 827.757 562.891 827.757L562.891 827.757ZM584.087 806.274 589.547 806.274 589.547 841.532 609.894 841.532 609.894 846.342 584.087 846.342 584.087 806.274 584.087 806.274ZM646.911 826.402C646.317 815.911 641.652 810.37 632.908 809.781 624.008 810.213 619.337 815.755 618.905 826.402 619.337 836.77 624.008 842.173 632.908 842.605 641.652 842.046 646.319 836.64 646.911 826.402L646.911 826.402ZM652.368 826.402C651.507 839.696 645.013 846.558 632.909 846.996 620.653 846.558 614.083 839.696 613.211 826.402 613.924 812.549 620.497 805.483 632.909 805.204 645.011 805.634 651.505 812.704 652.368 826.402L652.368 826.402ZM688.689 829.482 676.413 829.482 676.413 824.908 693.916 824.908 693.916 846.342 690.415 846.342 689.111 841.299C686.062 844.939 681.691 846.841 675.992 846.998 670.613 846.998 666.454 845.607 663.53 842.839 659.144 838.764 657.027 833.14 657.183 825.981 658.208 812.692 664.555 805.769 676.227 805.205 686.121 805.769 691.803 810.145 693.268 818.329L688.039 818.329C686.57 812.78 682.559 809.935 675.992 809.784 667.684 810.373 663.313 815.853 662.879 826.216 662.879 837.3 667.323 842.841 676.225 842.841 679.431 842.841 682.199 841.968 684.532 840.227 687.466 837.89 688.843 834.304 688.689 829.482L688.689 829.482Z" fill="#323333" transform="matrix(1 0 0 1.00141 254 -352.818)"/></g></svg>