<?xml version="1.0" encoding="utf-8"?>
<!-- Generator: Adobe Illustrator 16.0.0, SVG Export Plug-In . SVG Version: 6.00 Build 0)  -->
<!DOCTYPE svg PUBLIC "-//W3C//DTD SVG 1.1//EN" "http://www.w3.org/Graphics/SVG/1.1/DTD/svg11.dtd">
<svg version="1.1" id="图层_1" xmlns="http://www.w3.org/2000/svg" xmlns:xlink="http://www.w3.org/1999/xlink" x="0px" y="0px"
	 width="595.28px" height="841.89px" viewBox="0 0 595.28 841.89" enable-background="new 0 0 595.28 841.89" xml:space="preserve">
<g>
	<g>
		<defs>
			<rect id="SVGID_1_" x="13.063" y="300.719" width="574.938" height="333.27"/>
		</defs>
		<clipPath id="SVGID_2_">
			<use xlink:href="#SVGID_1_"  overflow="visible"/>
		</clipPath>
		<polyline clip-path="url(#SVGID_2_)" fill="#F8F8F8" points="-748.975,22.89 1348.201,22.89 1348.201,2789.154 -748.975,2789.154 
			-748.975,22.89 		"/>
		<polyline clip-path="url(#SVGID_2_)" fill="#F8F8F8" points="-748.975,155.12 1348.201,155.12 1348.201,2789.154 
			-748.975,2789.154 -748.975,155.12 		"/>
	</g>
	<g>
		<defs>
			<rect id="SVGID_3_" x="13.063" y="300.719" width="574.938" height="333.27"/>
		</defs>
		<clipPath id="SVGID_4_">
			<use xlink:href="#SVGID_3_"  overflow="visible"/>
		</clipPath>
		<polyline clip-path="url(#SVGID_4_)" fill="#EDEDEE" points="-748.975,22.89 1348.201,22.89 1348.201,2789.154 -748.975,2789.154 
			-748.975,22.89 		"/>
		<polyline clip-path="url(#SVGID_4_)" fill="#FFFFFF" points="-748.975,22.89 1348.201,22.89 1348.201,2429.487 -748.975,2429.487 
			-748.975,22.89 		"/>
	</g>
	<g>
		<defs>
			<polyline id="SVGID_5_" points="131.018,314.105 431.155,314.105 431.155,614.98 131.018,614.98 131.018,314.105 			"/>
		</defs>
		<clipPath id="SVGID_6_">
			<use xlink:href="#SVGID_5_"  overflow="visible"/>
		</clipPath>
		<path clip-path="url(#SVGID_6_)" fill="#BED63B" d="M144.228,441.385c0,2.635,0.079,5.27,0.229,7.901
			c0.153,2.632,0.382,5.259,0.689,7.876c0.304,2.619,0.686,5.228,1.14,7.822c0.458,2.599,0.988,5.177,1.595,7.744
			c0.605,2.568,1.284,5.115,2.037,7.638c0.751,2.53,1.579,5.029,2.477,7.511c0.896,2.475,1.865,4.929,2.906,7.35
			c1.042,2.423,2.148,4.813,3.327,7.172c1.181,2.358,2.425,4.678,3.737,6.968c1.313,2.281,2.69,4.533,4.134,6.739
			c1.444,2.203,2.948,4.365,4.517,6.487c1.568,2.117,3.197,4.189,4.886,6.214s3.433,3.996,5.235,5.919
			c1.802,1.925,3.66,3.799,5.569,5.612c1.911,1.813,3.873,3.576,5.884,5.275c2.012,1.705,4.074,3.347,6.183,4.93
			c2.105,1.58,4.256,3.101,6.453,4.562c2.198,1.459,4.432,2.85,6.71,4.178c2.277,1.329,4.589,2.589,6.938,3.783
			c2.349,1.194,4.732,2.319,7.147,3.376c2.413,1.058,4.856,2.043,7.33,2.958c2.473,0.916,4.967,1.758,7.488,2.525
			c2.521,0.771,5.061,1.467,7.625,2.09c2.559,0.624,5.135,1.17,7.728,1.646c2.593,0.474,5.196,0.869,7.814,1.193
			c2.614,0.323,5.237,0.567,7.866,0.739c2.63,0.173,5.261,0.267,7.899,0.283c2.634,0.017,5.271-0.039,7.902-0.176
			c2.631-0.135,5.257-0.345,7.878-0.629c2.619-0.291,5.227-0.652,7.827-1.092c2.603-0.438,5.184-0.951,7.751-1.539
			c2.567-0.585,5.122-1.249,7.651-1.987c2.531-0.732,5.04-1.541,7.521-2.422c2.485-0.881,4.942-1.831,7.37-2.854
			c2.43-1.029,4.825-2.121,7.19-3.279c2.368-1.164,4.698-2.396,6.994-3.69c2.292-1.298,4.546-2.661,6.763-4.089
			c2.214-1.426,4.386-2.92,6.518-4.472c2.129-1.554,4.208-3.171,6.242-4.844c2.038-1.676,4.024-3.407,5.959-5.196
			c1.933-1.787,3.816-3.633,5.644-5.533c1.828-1.898,3.603-3.849,5.323-5.851c1.711-2,3.369-4.051,4.963-6.147
			c1.597-2.101,3.133-4.237,4.605-6.426c1.473-2.187,2.878-4.413,4.226-6.681c1.344-2.27,2.617-4.572,3.832-6.915
			c1.208-2.345,2.351-4.721,3.421-7.126c1.075-2.409,2.075-4.847,3.008-7.312c0.93-2.468,1.792-4.955,2.579-7.471
			c0.784-2.518,1.502-5.054,2.144-7.611c0.639-2.561,1.202-5.133,1.693-7.725c0.489-2.588,0.907-5.19,1.255-7.803
			c0.337-2.617,0.603-5.237,0.791-7.869c0.187-2.63,0.299-5.263,0.334-7.899c0.041-2.633-0.005-5.269-0.117-7.903
			c-0.116-2.633-0.313-5.264-0.577-7.885c-0.27-2.621-0.618-5.238-1.031-7.837c-0.422-2.602-0.918-5.192-1.489-7.766
			c-0.565-2.575-1.212-5.13-1.931-7.667c-0.717-2.538-1.509-5.052-2.373-7.543c-0.864-2.489-1.797-4.953-2.801-7.39
			c-1.006-2.436-2.082-4.842-3.229-7.216c-1.144-2.374-2.357-4.717-3.639-7.018c-1.281-2.305-2.63-4.569-4.038-6.796
			c3.02,3.598,5.877,7.329,8.548,11.193c2.675,3.865,5.158,7.848,7.463,11.945c2.298,4.099,4.404,8.299,6.311,12.592
			c1.904,4.298,3.607,8.675,5.106,13.132c1.493,4.453,2.776,8.971,3.847,13.548c1.067,4.577,1.93,9.194,2.564,13.849
			c0.638,4.661,1.051,9.335,1.257,14.033c0.196,4.695,0.172,9.393-0.068,14.085c-0.241,4.696-0.703,9.371-1.388,14.017
			c-0.681,4.651-1.577,9.263-2.691,13.827c-1.112,4.571-2.437,9.073-3.972,13.513c-1.539,4.444-3.285,8.807-5.229,13.085
			c-1.944,4.276-4.089,8.453-6.426,12.532c-2.341,4.078-4.863,8.038-7.572,11.875c-2.717,3.841-5.599,7.544-8.653,11.111
			c-3.062,3.569-6.278,6.99-9.655,10.253c-3.38,3.267-6.905,6.371-10.576,9.304c-3.671,2.937-7.472,5.693-11.401,8.271
			c-3.928,2.575-7.968,4.968-12.122,7.163c-4.155,2.2-8.403,4.199-12.743,6c-4.341,1.795-8.757,3.386-13.249,4.771
			c-4.491,1.384-9.036,2.558-13.638,3.514c-4.599,0.958-9.235,1.697-13.904,2.218c-4.668,0.519-9.353,0.826-14.052,0.904
			c-4.697,0.082-9.391-0.058-14.076-0.416c-4.686-0.358-9.344-0.939-13.973-1.738c-4.632-0.796-9.216-1.808-13.752-3.036
			c-4.536-1.229-9.003-2.667-13.403-4.312c-4.403-1.65-8.717-3.502-12.944-5.553c-4.227-2.055-8.346-4.303-12.362-6.743
			c-4.018-2.441-7.911-5.061-11.679-7.869c-3.772-2.805-7.402-5.782-10.894-8.932c-3.488-3.146-6.822-6.451-10.001-9.914
			c-3.181-3.458-6.193-7.062-9.033-10.808c-2.842-3.737-5.501-7.61-7.98-11.603c-2.476-3.997-4.763-8.096-6.857-12.306
			c-2.093-4.206-3.982-8.505-5.674-12.894c-1.687-4.382-3.17-8.84-4.44-13.362c-1.273-4.53-2.328-9.104-3.168-13.73
			c-0.842-4.623-1.465-9.272-1.871-13.961c-0.402-4.683-0.586-9.375-0.551-14.072c0.037-4.701,0.291-9.392,0.768-14.066
			c0.475-4.677,1.17-9.321,2.081-13.932c0.916-4.61,2.042-9.172,3.381-13.676c1.339-4.506,2.889-8.937,4.647-13.296
			c1.757-4.362,3.712-8.63,5.869-12.803c2.156-4.179,4.506-8.244,7.046-12.199c2.54-3.955,5.258-7.783,8.156-11.482
			c-6.159,10.477-10.828,21.58-14.008,33.31C145.783,417.29,144.205,429.232,144.228,441.385L144.228,441.385z"/>
		<path clip-path="url(#SVGID_6_)" fill="#28AAE2" d="M301.097,325.182c-2.227,0-4.45,0.065-6.673,0.197
			c-2.224,0.128-4.44,0.321-6.652,0.575c-2.212,0.26-4.413,0.582-6.606,0.967c-2.189,0.386-4.372,0.834-6.538,1.344
			c-2.167,0.514-4.317,1.088-6.45,1.723c-2.134,0.637-4.249,1.332-6.343,2.091c-2.091,0.761-4.16,1.58-6.207,2.456
			c-2.044,0.879-4.064,1.817-6.055,2.813c-1.992,0.994-3.954,2.047-5.883,3.158c-1.932,1.107-3.826,2.272-5.691,3.491
			c-1.862,1.218-3.689,2.492-5.48,3.816c-1.789,1.328-3.537,2.703-5.246,4.13c-1.712,1.427-3.379,2.902-5.005,4.425
			c-1.625,1.521-3.2,3.089-4.735,4.705c-1.533,1.614-3.016,3.272-4.455,4.972c-1.438,1.701-2.826,3.441-4.161,5.223
			c-1.338,1.782-2.62,3.6-3.853,5.457c-1.231,1.854-2.408,3.744-3.531,5.668c-1.122,1.921-2.185,3.878-3.194,5.862
			c-1.011,1.987-1.962,3.998-2.852,6.039c-0.895,2.042-1.724,4.104-2.496,6.195c-0.775,2.088-1.484,4.199-2.138,6.329
			c-0.649,2.128-1.235,4.278-1.761,6.441c-0.527,2.162-0.991,4.34-1.391,6.53c-0.4,2.191-0.737,4.392-1.006,6.604
			c-0.275,2.207-0.483,4.426-0.627,6.648c-0.144,2.22-0.223,4.447-0.242,6.674c-0.013,2.227,0.037,4.452,0.148,6.676
			c0.114,2.225,0.291,4.446,0.536,6.657c0.241,2.215,0.546,4.418,0.918,6.616c0.369,2.195,0.803,4.378,1.297,6.552
			c0.497,2.17,1.055,4.327,1.675,6.463c0.622,2.139,1.306,4.255,2.049,6.358c0.744,2.096,1.548,4.172,2.41,6.228
			c0.867,2.051,1.788,4.078,2.768,6.078c0.983,2,2.021,3.965,3.117,5.905c1.095,1.942,2.244,3.847,3.45,5.719
			c1.208,1.871,2.465,3.706,3.776,5.506c1.312,1.801,2.675,3.56,4.087,5.28c1.415,1.721,2.879,3.398,4.387,5.033
			c1.513,1.635,3.07,3.225,4.674,4.771c1.604,1.544,3.249,3.042,4.939,4.494c1.692,1.449,3.421,2.849,5.193,4.195
			c1.77,1.354,3.576,2.651,5.425,3.894c1.846,1.246,3.729,2.433,5.64,3.572c1.917,1.136,3.863,2.214,5.841,3.239
			c1.975,1.022,3.982,1.986,6.016,2.895c2.032,0.906,4.091,1.753,6.173,2.541c2.083,0.789,4.186,1.514,6.31,2.179
			c2.124,0.668,4.267,1.27,6.426,1.811c2.161,0.543,4.333,1.021,6.52,1.436c2.188,0.415,4.387,0.768,6.595,1.057
			c2.206,0.288,4.418,0.512,6.64,0.671c2.22,0.161,4.444,0.26,6.671,0.285c2.225,0.035,4.452,0,6.675-0.099
			c2.224-0.097,4.443-0.26,6.657-0.485c2.215-0.228,4.423-0.517,6.62-0.872c2.199-0.354,4.389-0.774,6.56-1.252
			c2.175-0.481,4.33-1.026,6.475-1.633c2.142-0.604,4.266-1.272,6.368-2.002c2.104-0.727,4.185-1.518,6.242-2.369
			c2.061-0.847,4.091-1.758,6.094-2.726c2.008-0.968,3.982-1.992,5.927-3.073c1.945-1.086,3.86-2.222,5.739-3.411
			c-3.038,2.558-6.187,4.963-9.449,7.228c-3.263,2.262-6.625,4.365-10.086,6.31c-3.462,1.94-7.008,3.721-10.632,5.336
			c-3.629,1.61-7.321,3.049-11.087,4.315c-3.763,1.263-7.575,2.351-11.44,3.258c-3.866,0.904-7.764,1.627-11.698,2.167
			c-3.931,0.54-7.882,0.896-11.849,1.064c-3.965,0.168-7.93,0.146-11.896-0.053c-3.961-0.206-7.91-0.595-11.836-1.166
			c-3.929-0.575-7.821-1.336-11.675-2.275c-3.858-0.939-7.664-2.059-11.415-3.36c-3.753-1.297-7.436-2.771-11.047-4.413
			c-3.614-1.64-7.139-3.454-10.585-5.427c-3.441-1.979-6.784-4.11-10.027-6.398c-3.244-2.292-6.373-4.729-9.388-7.313
			c-3.012-2.585-5.899-5.308-8.657-8.16c-2.759-2.854-5.38-5.834-7.855-8.936c-2.48-3.102-4.809-6.313-6.987-9.631
			c-2.178-3.321-4.192-6.737-6.049-10.247c-1.858-3.509-3.543-7.098-5.063-10.766c-1.523-3.671-2.864-7.401-4.037-11.195
			c-1.167-3.796-2.156-7.638-2.964-11.523c-0.807-3.887-1.433-7.807-1.872-11.752c-0.44-3.945-0.694-7.907-0.765-11.875
			c-0.068-3.972,0.051-7.935,0.354-11.896c0.303-3.958,0.792-7.896,1.464-11.812c0.674-3.911,1.532-7.783,2.566-11.616
			c1.039-3.834,2.254-7.61,3.645-11.328c1.392-3.719,2.957-7.365,4.689-10.938c1.737-3.574,3.632-7.054,5.695-10.451
			c2.063-3.39,4.275-6.681,6.647-9.868c2.37-3.184,4.886-6.25,7.541-9.2c2.662-2.948,5.449-5.765,8.374-8.453
			c2.925-2.686,5.967-5.231,9.127-7.629c3.164-2.401,6.431-4.65,9.804-6.742c3.372-2.095,6.834-4.027,10.391-5.792
			c3.552-1.771,7.182-3.367,10.888-4.792c3.703-1.431,7.467-2.68,11.287-3.753c3.822-1.072,7.689-1.965,11.593-2.677
			c3.906-0.709,7.834-1.233,11.791-1.573c3.954-0.344,7.916-0.497,11.889-0.466c3.967,0.033,7.926,0.25,11.876,0.652
			c3.948,0.406,7.87,0.993,11.763,1.768c3.893,0.77,7.741,1.724,11.548,2.859c3.805,1.13,7.546,2.443,11.229,3.927
			c3.68,1.486,7.284,3.143,10.809,4.965c3.528,1.824,6.96,3.81,10.299,5.956c3.342,2.149,6.57,4.449,9.695,6.898
			c-8.843-5.218-18.215-9.178-28.118-11.885C321.445,326.541,311.362,325.185,301.097,325.182L301.097,325.182z"/>
	</g>
	<path fill="#F7B116" d="M355.791,519.816c2.589-2.592,5.019-5.321,7.291-8.195c2.271-2.871,4.371-5.865,6.299-8.983
		c1.921-3.115,3.659-6.333,5.215-9.651c1.549-3.319,2.9-6.712,4.062-10.188c1.159-3.474,2.114-7.005,2.864-10.588
		c0.746-3.588,1.282-7.203,1.617-10.854c0.33-3.648,0.447-7.303,0.355-10.964c-0.098-3.659-0.403-7.305-0.917-10.931
		c-0.52-3.628-1.238-7.21-2.171-10.755c-0.933-3.542-2.066-7.018-3.401-10.428c-1.333-3.413-2.859-6.736-4.577-9.969
		c-1.722-3.234-3.623-6.359-5.704-9.372c-2.079-3.012-4.329-5.896-6.746-8.65c-2.417-2.75-4.982-5.353-7.701-7.809
		c-2.718-2.454-5.564-4.742-8.55-6.867c-2.984-2.126-6.078-4.069-9.286-5.836c-3.211-1.764-6.508-3.337-9.899-4.722
		c-3.39-1.38-6.849-2.563-10.378-3.545c-3.527-0.981-7.101-1.753-10.718-2.32c-3.618-0.568-7.256-0.924-10.916-1.068
		c-3.658-0.145-7.312-0.078-10.963,0.201c-3.651,0.278-7.275,0.768-10.871,1.465c-3.591,0.701-7.135,1.605-10.626,2.715
		c-3.486,1.112-6.9,2.418-10.237,3.926c-3.339,1.504-6.581,3.199-9.721,5.081s-6.165,3.939-9.068,6.172
		c-2.9,2.23-5.665,4.623-8.292,7.175c-2.627,2.554-5.096,5.253-7.411,8.09c-2.31,2.838-4.453,5.801-6.421,8.891
		c-1.971,3.088-3.756,6.277-5.357,9.574c-1.6,3.294-3,6.671-4.211,10.126c-1.21,3.458-2.215,6.974-3.015,10.548
		c0.284-3.25,0.715-6.481,1.3-9.691c0.586-3.209,1.321-6.384,2.203-9.527c0.884-3.142,1.914-6.237,3.088-9.282
		c1.173-3.042,2.488-6.025,3.94-8.947c1.453-2.922,3.042-5.771,4.762-8.543c1.721-2.772,3.568-5.456,5.542-8.057
		c1.974-2.598,4.066-5.098,6.274-7.498c2.208-2.403,4.524-4.696,6.945-6.882c2.426-2.186,4.945-4.249,7.563-6.197
		c2.615-1.947,5.321-3.768,8.109-5.463c2.79-1.693,5.652-3.252,8.584-4.676c2.936-1.427,5.93-2.709,8.988-3.854
		c3.057-1.143,6.158-2.143,9.306-2.995c3.149-0.852,6.333-1.553,9.545-2.107c3.215-0.554,6.451-0.953,9.702-1.201
		c3.253-0.25,6.511-0.346,9.773-0.288c3.26,0.057,6.512,0.267,9.756,0.629c3.242,0.364,6.459,0.878,9.65,1.543
		c3.198,0.667,6.352,1.479,9.47,2.438c3.118,0.962,6.182,2.067,9.197,3.317c3.011,1.251,5.961,2.639,8.845,4.165
		c2.882,1.527,5.688,3.184,8.416,4.976c2.727,1.79,5.363,3.704,7.91,5.741c2.552,2.042,4.998,4.193,7.343,6.462
		c2.344,2.268,4.581,4.64,6.701,7.118c2.124,2.48,4.124,5.05,6.006,7.715c1.879,2.667,3.633,5.416,5.258,8.247
		c1.619,2.831,3.11,5.731,4.46,8.701c1.353,2.972,2.561,5.999,3.628,9.083c1.063,3.082,1.985,6.209,2.756,9.382
		c0.776,3.169,1.396,6.369,1.866,9.597c0.476,3.229,0.795,6.476,0.963,9.732c0.169,3.26,0.18,6.52,0.043,9.779
		c-0.142,3.264-0.431,6.508-0.872,9.743c-0.443,3.231-1.039,6.438-1.782,9.616c-0.743,3.175-1.635,6.311-2.671,9.404
		c-1.043,3.095-2.22,6.132-3.544,9.115c-1.323,2.98-2.786,5.896-4.383,8.743c-1.602,2.843-3.328,5.607-5.181,8.288
		c-1.858,2.685-3.838,5.272-5.937,7.771c-2.102,2.499-4.313,4.892-6.641,7.182c-2.323,2.288-4.751,4.464-7.28,6.524
		c-2.527,2.063-5.148,3.997-7.861,5.812c-2.712,1.817-5.5,3.5-8.372,5.053c-2.869,1.556-5.802,2.971-8.805,4.243
		c-3.005,1.277-6.061,2.413-9.169,3.4c-3.104,0.992-6.258,1.831-9.441,2.527c-3.191,0.692-6.402,1.235-9.641,1.627
		c8.164-2.126,15.905-5.29,23.224-9.484C343.193,530.872,349.833,525.785,355.791,519.816L355.791,519.816z"/>
	<path fill="#323333" d="M60.894,415.435c-0.37-0.269-0.671-0.711-0.897-1.329c-0.224-0.596-0.339-1.174-0.339-1.729
		c0-1.38,0.732-2.068,2.193-2.068c8.173-0.29,14.915-0.967,20.226-2.039c5.332-1.051,12.854-2.927,22.572-5.624l2.779-0.832
		c1.213-0.372,2.655-0.557,4.323-0.557c2.511,0,4.176,0.608,5.002,1.821c1.296,1.938,2.222,3.389,2.778,4.356
		c0.555,0.989,1.244,2.585,2.068,4.789c0.288,0.842,0.434,1.597,0.434,2.255c0,2.039-1.442,3.058-4.323,3.058
		c-0.824,0-1.461-0.051-1.916-0.154c-2.058-0.185-3.644-0.278-4.755-0.278c-4.16,0-8.275,0.536-12.35,1.606
		c-4.077,1.072-9.542,2.759-16.398,5.066c-1.75,0.557-3.325,1.152-4.725,1.792c-1.583,0.657-2.602,0.987-3.056,0.987
		c-0.556,0-1.111-0.163-1.668-0.493c-0.556-0.331-1.203-0.813-1.945-1.453l-5.003-4.569
		C64.331,418.452,62.663,416.916,60.894,415.435L60.894,415.435z M149.698,442.833c0.371,0.825,0.556,1.699,0.556,2.624
		c0,2.411-1.583,3.615-4.755,3.615c-0.452,0-1.326-0.094-2.624-0.276c-4.076-0.742-8.337-1.114-12.784-1.114
		c-8.252,0-19.515,1.021-33.78,3.059c0.473,1.484,0.781,2.871,0.925,4.169c0.125,1.299,0.147,2.278,0.063,2.936
		c-0.186,1.111-0.763,2.286-1.73,3.521c-0.965,1.258-2.385,2.862-4.261,4.82c-4.9,5.087-8.923,8.926-12.073,11.521
		c-1.296,1.007-1.296,1.474,0,1.39c8.708-0.926,17.787-2.037,27.235-3.335l-4.168-6.95c-0.825-1.4-1.236-2.648-1.236-3.739
		c0-0.948,0.299-1.666,0.895-2.161c0.597-0.517,1.399-0.772,2.41-0.772c1.028,0,2.046,0.186,3.057,0.555
		c5.661,1.956,11.457,5.16,17.384,9.61c3.335,2.491,5.722,4.732,7.164,6.731c1.442,1.996,2.162,3.962,2.162,5.899
		c0,1.398-0.257,2.844-0.773,4.324c-0.515,1.482-1.38,3.428-2.594,5.837c-1.936,4.265-4.013,6.396-6.236,6.396
		c-2.326,0-4.694-2.328-7.103-6.981c-1.462-2.863-3.407-6.292-5.836-10.288c-4.16,1.669-9.983,3.762-17.477,6.271
		c-5.58,1.956-10.869,3.883-15.872,5.776c-4.981,1.893-8.13,3.268-9.449,4.109c-1.089,0.74-2.387,1.113-3.891,1.113
		c-1.296,0-2.408-0.29-3.335-0.864c-3.128-2.124-5.32-3.831-6.576-5.129c-1.257-1.298-2.532-3.521-3.829-6.671
		c-1.01-2.495-1.513-4.068-1.513-4.726c0-0.641,0.299-1.081,0.895-1.33c0.597-0.227,1.638-0.434,3.119-0.619
		c0.928-0.081,1.667-0.36,2.223-0.831c0.556-0.472,1.134-1.031,1.73-1.671c0.595-0.637,0.987-1.102,1.174-1.391
		c5.288-6.114,10.25-12.457,14.883-19.025c2.12-2.882,3.458-4.735,4.014-5.561c-11.116,1.832-18.341,3.267-21.676,4.293
		c-1.75,0.557-3.511,1.204-5.28,1.946c-1.567,0.658-2.625,0.988-3.181,0.988c-1.029,0-2.232-0.7-3.612-2.099l-3.612-3.336
		c-2.966-2.595-5.229-4.675-6.795-6.24c-0.841-0.844-1.265-1.97-1.265-3.367c0-1.382,0.739-2.069,2.223-2.069
		c6.483,0,16.025-0.855,28.624-2.564c12.598-1.707,28.108-4.008,46.533-6.888c3.251-0.474,6.938-1.029,11.054-1.669
		s8.359-1.288,12.722-1.945c1.668-0.27,3.468-0.402,5.404-0.402c2.78,0,4.592,0.597,5.436,1.793
		c1.194,1.768,2.119,3.304,2.777,4.602C147.702,438.014,148.587,440.052,149.698,442.833L149.698,442.833z M278.771,457.844
		c3.603,1.277,6.083,2.525,7.441,3.738c1.337,1.195,2.005,2.678,2.005,4.447c0,1.113-0.419,3.336-1.264,6.671
		c-1.011,3.811-2.44,5.714-4.292,5.714c-1.584,0-3.665-1.349-6.237-4.043l-7.379-7.786c-1.484-1.483-3.152-3.243-5.003-5.281
		c-0.658-0.741-1.165-1.576-1.513-2.501c-0.373,0-1.029-0.094-1.978-0.279c-3.497-0.64-6.967-0.958-10.404-0.958h-3.057
		c2.223,1.381,3.798,2.605,4.723,3.678c0.927,1.071,1.389,2.254,1.389,3.552c0,1.461-0.74,3.777-2.221,6.949
		c-1.399,2.964-2.791,4.447-4.171,4.447c-1.481,0-3.281-1.629-5.402-4.881c-2.697-3.705-5.58-8.008-8.648-12.911
		c-8.315,0.904-14.976,1.876-19.976,2.904c3.127,1.669,5.114,3.203,5.958,4.603c0.186-0.741,0.887-1.111,2.1-1.111
		c1.565,0,3.066,0.315,4.509,0.958c1.441,0.639,3.127,1.657,5.063,3.058c0.742,0.555,1.854,1.299,3.335,2.225
		c1.01,0.657,1.862,1.381,2.562,2.162c0.701,0.78,1.05,1.914,1.05,3.397c0,0.739-0.051,1.297-0.152,1.665
		c3.54-0.554,6.09-1.019,7.656-1.388c1.111-0.268,2.368-0.401,3.767-0.401c1.832,0,3.026,0.409,3.582,1.235
		c1.029,1.4,1.75,2.491,2.161,3.272c0.433,0.782,0.918,2.104,1.452,3.955l0.277,1.67c0,1.665-1.101,2.499-3.303,2.499
		c-0.741,0-1.305-0.038-1.699-0.124c-1.751-0.286-3.787-0.431-6.113-0.431c-2.573,0-5.209,0.145-7.904,0.431v8.897
		c10.004-0.74,18.484-1.759,25.443-3.056c1.089-0.29,2.338-0.436,3.737-0.436c3.047,0,4.899,0.703,5.556,2.102
		c0.372,0.719,0.948,1.876,1.729,3.458c0.803,1.587,1.575,3.665,2.317,6.24c0.183,0.926,0.276,1.577,0.276,1.944
		c0,2.249-1.204,3.371-3.612,3.371c-0.555,0-1.575-0.197-3.058-0.588c-2.428-0.74-6.042-1.34-10.838-1.79
		c-3.355-0.373-7.524-0.558-12.504-0.558c-7.598,0-15.615,0.391-24.057,1.174c-8.42,0.781-14.574,1.598-18.464,2.438
		c-1.69,0.373-3.128,0.796-4.323,1.268c-1.38,0.455-2.356,0.679-2.936,0.679c-0.903,0-1.965-0.648-3.18-1.946l-2.346-2.655
		c-1.955-2.224-3.954-4.345-5.992-6.361c-0.638-0.661-0.957-1.505-0.957-2.533c0-1.38,0.732-2.03,2.194-1.95
		c3.806,0.373,9.365,0.56,16.673,0.56c6.114,0,12.506-0.135,19.175-0.402l0.154-7.659l-3.612,0.709l-3.334,0.559
		c-1.296,0.182-2.431,0.392-3.398,0.615c-0.988,0.247-1.666,0.372-2.038,0.372c-0.74,0-1.75-0.517-3.025-1.546
		c-0.844-0.641-1.914-1.701-3.211-3.181c-1.296-1.402-2.316-2.471-3.057-3.215c-0.64-0.657-0.957-1.396-0.957-2.223
		c0-1.113,0.595-1.668,1.791-1.668c4.529,0,11.383-0.413,20.565-1.234c-0.287-4.365-1.028-8.218-2.223-11.553
		c-0.084,1.381-0.825,3.512-2.224,6.393c-1.213,2.782-2.511,4.172-3.891,4.172s-3.139-1.524-5.28-4.573l-3.057-4.603
		c-1.854-2.594-3.149-4.488-3.891-5.684c-1.196,0.454-2.029,0.68-2.502,0.68c-0.738,0-1.76-0.517-3.056-1.544
		c-2.038-1.751-3.099-2.666-3.179-2.75c-3.624-3.336-5.436-5.002-5.436-5.002c-0.288-0.288-0.547-0.712-0.771-1.268
		c-0.227-0.555-0.34-1.071-0.34-1.547c0-1.193,0.649-1.79,1.944-1.79c9.265,0,20.288-0.781,33.071-2.348v-3.491l-5.558,0.836
		c-1.195,0.185-2.307,0.462-3.335,0.835c-1.009,0.369-1.657,0.554-1.946,0.554c-0.658,0-1.357-0.369-2.099-1.111
		c-0.554-0.556-1.451-1.39-2.685-2.504c-1.258-1.109-2.441-2.314-3.552-3.611c-0.471-0.741-0.709-1.391-0.709-1.945
		c0-1.012,0.515-1.475,1.545-1.392c4.176,0.287,10.334-0.175,18.464-1.39v-4.169c-4.343,0.453-7.628,0.864-9.852,1.234
		c-0.37,2.14-1.111,3.212-2.221,3.212c-0.742,0-2.092-0.886-4.046-2.655c-1.646-1.566-3.095-2.604-4.354-3.119
		c-1.256-0.495-2.016-0.835-2.284-1.02c-1.213-0.659-2.08-1.382-2.593-2.163c-0.495-0.804-0.609-1.523-0.342-2.162
		c0.186-0.269,0.279-0.772,0.279-1.516c0-1.294-0.598-3.519-1.792-6.67l-1.264-4.201c-1.03-3.5-2.029-6.394-2.996-8.681
		c-0.966-2.263-2.47-4.416-4.508-6.455c-0.372-0.369-0.486-0.833-0.34-1.389c0.146-0.558,0.67-1.02,1.574-1.391
		c0.928-0.372,2.317-0.556,4.17-0.556c1.584,0,3.397,0.226,5.434,0.679l3.18,0.588c2.41-0.187,5.61-0.649,9.603-1.391
		c3.993-0.742,9.42-1.814,16.272-3.213l20.412-4.046c3.438-0.639,5.775-1.349,7.01-2.131c1.257-0.803,2.017-1.204,2.284-1.204
		c0.58,0,2.297,0.701,5.158,2.1c3.521,1.584,6.63,3.121,9.326,4.604c2.677,1.481,4.014,3.047,4.014,4.694
		c0,0.393-0.225,0.907-0.679,1.545c-1.769,1.853-3.304,4.519-4.6,8c-1.297,3.48-2.833,8.132-4.603,13.961
		c-1.563,5.274-2.715,8.702-3.458,10.287c-2.222,4.634-3.941,6.95-5.158,6.95c-0.534,0-1.038-0.32-1.513-0.958
		c-0.471-0.659-1.213-1.915-2.221-3.769l-0.711-1.234c-2.678-0.288-4.849-0.382-6.515-0.278l-7.504,0.833v2.749
		c4.447-1.01,7.226-1.7,8.337-2.069c0.741-0.27,1.535-0.402,2.377-0.402c0.825,0,1.607,0.154,2.348,0.465
		c0.74,0.33,1.295,0.772,1.668,1.328c0.184,0.185,0.594,0.781,1.233,1.792c0.659,1.026,1.36,2.563,2.1,4.603
		c0.268,0.638,0.4,1.193,0.4,1.666c0,1.298-1.243,1.946-3.733,1.946l-4.017-0.124c-1.398,0-4.972,0.412-10.714,1.237v3.613
		c6.115-0.925,11.632-1.986,16.551-3.182c1.854-0.371,3.282-0.557,4.292-0.557c2.308,0,3.831,0.557,4.571,1.669
		c0.208,0.371,0.648,1.041,1.328,2.008c0.701,0.968,1.305,1.985,1.822,3.058c0.515,1.072,0.997,2.347,1.452,3.83
		c0.287,0.825,0.431,1.514,0.431,2.069h0.4c2.78,0.288,4.962,0.545,6.547,0.773C275.21,456.744,276.919,457.187,278.771,457.844
		L278.771,457.844z M251.938,396.53c-1.483,0-6.618,0.833-15.41,2.502c0,0.371-0.091,0.927-0.277,1.667v8.063l1.235-1.111
		c0.843-0.742,1.583-1.69,2.224-2.841c0.657-1.153,1.027-2.247,1.111-3.275c0.102-0.269,0.208-0.711,0.309-1.328
		c0.083-0.596,0.27-1.059,0.555-1.389c0.27-0.33,0.627-0.495,1.082-0.495c0.288,0,0.711,0.102,1.267,0.309
		c1.75,0.556,3.212,1.76,4.384,3.615c1.153,1.83,1.822,3.17,2.006,4.014c0.186,0.659,0.073,1.399-0.339,2.225
		c-0.41,0.842-1.042,1.491-1.881,1.946c-5.104,3.066-9.09,5.292-11.951,6.672v1.668l4.878-0.834l5.25-0.834l0.71-0.123
		c0.37-0.556,0.833-1.576,1.388-3.059c1.298-3.252,2.246-6.506,2.842-9.76c0.595-3.233,0.948-5.127,1.05-5.685
		c0.082-0.37,0.124-0.792,0.124-1.265C252.494,396.755,252.308,396.53,251.938,396.53L251.938,396.53z M211.238,422.383
		c5.828-0.823,9.164-1.287,10.007-1.391v-8.617c0-4.633-0.093-8.102-0.279-10.409c-6.384,1.296-10.972,2.307-13.772,3.025
		c-0.534,0.187-0.904,0.28-1.111,0.28l0.833,2.81v-0.155c0-0.925,0.888-1.481,2.656-1.667c0.926-0.083,2.038-0.124,3.334-0.124
		c1.38,0,2.531,0.134,3.458,0.403c3.149,0.739,4.725,3.017,4.725,6.825c0,0.556-0.083,1.391-0.248,2.503
		c-0.473,2.678-1.359,4.015-2.656,4.015c-1.027,0-2.325-0.781-3.89-2.348c-1.853-1.854-3.284-3.459-4.292-4.82
		c-1.028-1.336-1.729-2.23-2.099-2.686c-0.474-0.556-0.75-1.018-0.835-1.391l2.069,7.507
		C210.25,418.822,210.953,420.902,211.238,422.383L211.238,422.383z M194.134,480.763c-1.011,4.078-3.368,6.115-7.072,6.115
		c-1.75,0-3.881-0.554-6.391-1.665c-5.374-2.409-8.061-6.953-8.061-13.623c0-1.937,0.226-4.068,0.68-6.395
		c0.37-1.854,0.926-3.283,1.668-4.294c0.742-1.028,1.533-1.543,2.377-1.543c1.028,0,1.955,0.648,2.778,1.945
		c0.741,1.213,1.781,2.214,3.118,2.997c1.338,0.781,2.71,1.174,4.108,1.174c1.482,0,2.832-0.412,4.045-1.235
		c0.74-0.579,1.338-0.867,1.791-0.867c0.473,0,0.361,0.61-0.339,1.823c-0.701,1.196-1.553,2.449-2.563,3.771
		c-0.288,0.369-0.432,0.822-0.432,1.356c0,1.03,0.7,2.523,2.1,4.479c0.824,1.382,1.443,2.512,1.852,3.399
		C194.204,479.086,194.317,479.941,194.134,480.763L194.134,480.763z M356.708,501.492c-1.195-3.254-2.554-5.601-4.076-7.043
		c-1.521-1.421-3.058-2.534-4.602-3.336c-1.521-0.78-2.617-1.36-3.275-1.73c-1.007-0.641-1.51-1.144-1.51-1.515
		c0-0.554,0.739-0.833,2.223-0.833c0.555,0,2.387,0.041,5.497,0.124c3.088,0.103,5.681-0.564,7.779-2.007
		c2.08-1.442,3.118-3.645,3.118-6.612l0.279-60.604c0-5.189-0.206-9.707-0.616-13.562c-0.434-3.828-1.338-7.187-2.718-10.068
		c-0.27-0.473-0.226-0.937,0.122-1.389c0.394-0.456,1.041-0.681,1.946-0.681c1.669,0,3.18,0.339,4.539,1.02
		c1.337,0.7,3.067,1.752,5.188,3.151l3.336,2.068c1.028,0.66,1.862,1.382,2.499,2.165c0.661,0.781,0.99,1.874,0.99,3.273
		c0,1.011-0.096,1.792-0.279,2.347v72.28c0,7.228-0.184,12.274-0.557,15.138c-0.368,2.882-1.336,5.197-2.902,6.95
		c-1.582,1.769-3.325,3.283-5.217,4.539c-1.914,1.237-3.703,1.853-5.373,1.853C360.237,507.019,358.104,505.177,356.708,501.492
		L356.708,501.492z M410.065,464.917c-3.789-8.341-8.925-16.258-15.41-23.751c-1.193-1.32-1.79-2.618-1.79-3.895
		c0-1.028,0.435-1.843,1.299-2.44c0.885-0.617,2.068-0.925,3.553-0.925c0.653,0,1.169,0.051,1.541,0.152
		c2.2,0.288,4.261,0.844,6.178,1.669c1.891,0.845,3.695,1.77,5.401,2.781c1.708,1.01,2.932,1.697,3.673,2.069
		c4.45,2.511,7.576,4.785,9.39,6.826c1.814,2.036,2.717,4.222,2.717,6.549c0,1.11-0.187,2.408-0.555,3.891
		c-0.372,1.46-0.721,2.688-1.051,3.675c-0.31,0.968-0.557,1.68-0.74,2.133c-0.847,2.511-1.917,4.488-3.211,5.931
		c-1.298,1.443-2.646,2.162-4.047,2.162C414.52,471.745,412.207,469.467,410.065,464.917L410.065,464.917z M334.071,472.024
		c-2.137,3.501-4.453,5.249-6.945,5.249c-1.665,0-3.932-0.874-6.794-2.623c-1.77-1.012-3.232-2.534-4.385-4.574
		c-1.151-2.059-1.729-4.2-1.729-6.424c0-3.501,1.521-6.456,4.57-8.867c4.732-3.704,8.307-6.793,10.715-9.265
		c2.387-2.45,4.417-5.29,6.082-8.524c0.394-0.659,0.858-1.196,1.391-1.607c0.554-0.411,1.12-0.617,1.697-0.617
		c0.64,0,1.215,0.392,1.729,1.174c0.516,0.78,0.773,1.954,0.773,3.52c0,4.635-0.657,10.357-1.975,17.177
		C337.924,463.457,336.213,468.584,334.071,472.024L334.071,472.024z M552.632,453.085c1.027,0.394,2.723,1.484,5.092,3.276
		c2.371,1.812,4.501,3.759,6.396,5.837c1.894,2.103,2.839,3.934,2.839,5.5c0,0.925-0.409,1.667-1.235,2.226
		c-1.876,1.293-3.735,4.034-5.59,8.216c-1.831,4.158-3.26,8.423-4.289,12.786c0.654,1.195,1.49,3.368,2.499,6.517
		c0.186,0.558,0.279,1.246,0.279,2.071c0,2.225-1.524,3.335-4.567,3.335c-1.22,0-2.193-0.091-2.94-0.277
		c-5.823-1.194-9.858-1.753-12.102-1.669l-3.022,0.155c-8.154,0.453-13.578,0.825-16.274,1.111c-0.929,4.905-2,7.353-3.211,7.353
		c-0.454,0-1.07-0.317-1.856-0.957c-0.801-0.658-1.655-1.454-2.56-2.38c-1.96-1.852-3.56-3.143-4.819-3.861
		c-1.231-0.762-2-1.235-2.285-1.421c-1.955-1.112-2.934-2.355-2.934-3.735c0-0.268,0.093-0.681,0.279-1.235
		c0.286-0.558,0.431-1.26,0.431-2.104c0-0.821-0.183-2.162-0.551-4.013c-0.104-0.373-0.2-0.796-0.278-1.268
		c-0.104-0.453-0.155-1.012-0.155-1.67c-0.459-3.993-1.239-8.346-2.348-13.064l-15.995,10.288
		c-11.199,7.041-17.58,11.21-19.147,12.508c-0.947,0.844-2.201,1.267-3.763,1.267c-0.93,0-1.628-0.144-2.104-0.434
		c-5.085-2.677-8.977-6.292-11.672-10.839c-1.194-2.041-1.791-3.562-1.791-4.575c0-0.946,0.504-1.418,1.516-1.418l1.422,0.277
		c0.901,0.287,3.741-0.125,8.52-1.237c4.776-1.111,10.459-2.633,17.044-4.572c3.047-6.854,5.724-14.36,8.027-22.516
		c0.188-0.657,0.612-2.029,1.266-4.109c0.641-2.078,0.96-3.86,0.96-5.344c0-0.557-0.092-1.204-0.277-1.943l-0.403-1.702
		c-4.443,0.928-9.039,2.37-13.771,4.326c-1.298,0.556-2.781,1.243-4.446,2.069c-1.381,0.844-2.44,1.268-3.182,1.268
		c-0.844,0-1.914-0.506-3.211-1.515l-3.456-2.656c-2.413-1.584-4.674-3.298-6.795-5.128c-0.284-0.37-0.599-0.866-0.925-1.481
		c-0.331-0.598-0.496-1.123-0.496-1.576c0-1.134,0.609-1.739,1.821-1.823c8.442-0.825,15.292-1.885,20.565-3.182
		c5.271-1.298,13.012-3.799,23.22-7.506c1.939-0.741,3.884-1.112,5.839-1.112c1.852,0,3.189,0.463,4.017,1.392
		c1.291,1.48,2.289,2.747,2.991,3.798c0.701,1.071,1.646,2.864,2.84,5.374c0.557,1.091,0.836,2.017,0.836,2.781
		c0,1.298-0.609,2.224-1.82,2.779c-1.198,0.557-2.771,0.742-4.727,0.557c-3.521-0.287-6.526-0.381-9.018-0.277
		c1.483,1.09,2.667,2.408,3.552,3.954c0.884,1.523,1.46,2.708,1.731,3.551c0.286,0.906,0.43,1.73,0.43,2.473
		c0,1.213-0.381,2.356-1.142,3.428c-0.721,1.073-1.174,1.831-1.357,2.286c-0.185,0.657-0.567,1.636-1.146,2.934
		c1.399-0.287,2.378-0.433,2.937-0.433c3.146,0,6.895,0.833,11.24,2.503l11.268-1.546l0.4-37.807
		c0.105-4.819-0.05-9.215-0.461-13.19c-0.41-3.975-1.365-7.444-2.872-10.408c-0.269-0.475-0.215-0.937,0.154-1.391
		c0.372-0.474,1.019-0.711,1.947-0.711c1.668,0,3.219,0.349,4.662,1.05c1.441,0.703,3.076,1.69,4.907,2.966
		c0.765,0.577,1.888,1.328,3.366,2.256c1.013,0.639,1.862,1.348,2.562,2.131c0.682,0.803,1.022,1.936,1.022,3.396
		c0,0.393-0.098,1.144-0.279,2.256v15.969c1.212-0.186,4.003-0.834,8.368-1.945c1.665-0.555,4.21-1.204,7.626-1.947
		c1.299-0.288,2.648-0.431,4.046-0.431c2.491,0,4.108,0.564,4.849,1.699c1.006,1.379,1.771,2.584,2.283,3.613
		c0.516,1.011,1.238,2.719,2.161,5.127c0.372,0.743,0.558,1.484,0.558,2.227c0,1.854-1.297,2.779-3.894,2.779
		c-0.925,0-1.665-0.039-2.224-0.124c-1.85-0.288-3.558-0.432-5.125-0.432c-3.169,0-7.438,0.741-12.812,2.223
		c-1.277,0.372-2.45,0.762-3.521,1.174c-1.069,0.432-1.845,0.688-2.316,0.772v16.126c3.336-0.743,5.703-1.463,7.104-2.165
		c1.397-0.679,2.271-1.018,2.619-1.018c0.375,0,1.298,0.279,2.781,0.834L552.632,453.085L552.632,453.085z M474.136,419.882
		c0-5.375-1.294-9.398-3.889-12.078c-1.112-1.297-1.666-2.183-1.666-2.656c0-0.371,0.223-0.701,0.678-0.989
		c0.472-0.268,1.229-0.535,2.25-0.803c1.65-0.555,3.491-0.835,5.532-0.835c1.771,0,3.448,0.187,5.033,0.556
		c3.148,0.64,5.597,1.846,7.348,3.616c1.773,1.751,2.655,3.83,2.655,6.239c0,1.77-0.562,3.623-1.697,5.561
		c-1.112,1.955-3.046,2.935-5.807,2.935c-1.77,0-2.985-0.28-3.643-0.835c-0.268-0.186-0.821-0.588-1.668-1.206
		c-0.824-0.596-1.513-0.895-2.07-0.895c-0.554,0-0.963,0.556-1.232,1.668c-0.186,0.741-0.517,1.111-0.988,1.111
		C474.416,421.272,474.136,420.809,474.136,419.882L474.136,419.882z M461.508,449.751c0.453-1.196,1.05-2.091,1.794-2.688
		c0.74-0.615,1.483-0.925,2.222-0.925c1.194,0,1.791,0.886,1.791,2.657c0,0.452,0.051,0.842,0.154,1.174
		c0.079,0.33,0.269,0.493,0.558,0.493c0.739,0,2.644-0.928,5.711-2.781c0.454-0.369,0.791-0.483,1.019-0.339
		c0.244,0.124,0.368,0.37,0.368,0.741c0,1.112-0.554,2.511-1.666,4.201c-0.285,0.349-0.431,0.949-0.431,1.793
		c0,0.657,0.184,2.099,0.555,4.322c0.454,2.966,0.678,4.912,0.678,5.84c0,1.75-0.269,3.087-0.802,4.015
		c-1.297,2.038-2.871,3.057-4.723,3.057c-1.854,0-3.9-1.152-6.144-3.458c-2.202-2.326-3.309-5.251-3.309-8.773
		C459.283,456.3,460.026,453.189,461.508,449.751L461.508,449.751z M488.589,470.2c2.781-0.825,5.783-1.844,9.016-3.057
		c-1.088-3.707-2.245-6.435-3.457-8.188C492.479,462.848,490.626,466.594,488.589,470.2L488.589,470.2z M543.494,470.478
		l0.244-1.391c0-0.556-0.186-0.833-0.554-0.833c-0.353,0-0.578,0-0.683,0c-1.381,0-4.901,0.441-10.56,1.328
		c-5.663,0.864-10.898,1.813-15.717,2.841l2.375,15.444c9.819-0.761,16.811-1.461,20.97-2.101
		C541.339,478.993,542.646,473.895,543.494,470.478L543.494,470.478z"/>
	<rect x="47.709" y="544.936" fill="#323333" width="83.216" height="3.088"/>
	<rect x="468.302" y="544.936" fill="#323333" width="83.216" height="3.088"/>
	<path fill="#323333" d="M163.787,533.374l-10.004,15.787v10.719h-3.614v-10.719l-9.972-15.787h4.2l7.502,12.761l7.688-12.761
		H163.787L163.787,533.374z M184.476,550.024v-16.65h3.613v17.084c-0.286,6.385-3.901,9.668-10.838,9.855
		c-6.462-0.188-9.841-3.275-10.128-9.267v-17.673h3.612v16.65c0.102,4.842,2.317,7.301,6.64,7.384
		C182.108,557.325,184.476,554.866,184.476,550.024L184.476,550.024z M197.939,533.374l13.308,21.438v-21.438h3.49v26.506h-4.046
		l-13.461-21.438h-0.155v21.438h-3.491v-26.506H197.939L197.939,533.374z M239.624,541.068h-3.334
		c-0.186-3.377-2.399-5.168-6.64-5.374c-3.974,0.101-5.958,1.646-5.958,4.635c0,1.933,1.071,3.045,3.21,3.334l7.503,1.729
		c3.974,0.967,5.961,3.39,5.961,7.259c-0.102,4.922-3.582,7.476-10.437,7.663c-3.767,0-6.424-0.776-7.966-2.317
		c-1.937-1.441-2.85-3.669-2.75-6.674h3.49c0.083,4.059,2.491,6.137,7.226,6.24c4.632-0.104,6.999-1.597,7.101-4.479
		c0.371-2.43-1.565-4.023-5.805-4.787l-5.495-1.174c-3.767-1.05-5.653-3.174-5.653-6.365c0.288-5.211,3.376-7.906,9.264-8.092
		C236.011,532.666,239.439,535.467,239.624,541.068L239.624,541.068z M248.457,544.248h13.896v-10.874h3.613v26.506h-3.613v-12.293
		h-13.896v12.293h-3.613v-26.506h3.613V544.248L248.457,544.248z M275.538,556.698h15.901v3.182h-19.545v-26.506h19.268v3.062
		h-15.624v8.246h14.45v3.182h-14.45V556.698L275.538,556.698z M300.426,533.374l13.307,21.438v-21.438h3.491v26.506h-4.079
		l-13.462-21.438h-0.125v21.438h-3.488v-26.506H300.426L300.426,533.374z M342.543,548.727h-8.123v-3.026H346v14.179h-2.313
		l-0.864-3.336c-2.017,2.408-4.911,3.666-8.678,3.77c-3.563,0-6.31-0.92-8.248-2.751c-2.9-2.696-4.299-6.416-4.198-11.152
		c0.683-8.791,4.881-13.371,12.601-13.744c6.545,0.373,10.303,3.268,11.27,8.682h-3.459c-0.967-3.671-3.621-5.553-7.965-5.653
		c-5.497,0.39-8.392,4.015-8.679,10.87c0,7.333,2.945,10.998,8.833,10.998c2.121,0,3.952-0.577,5.493-1.729
		C341.73,554.289,342.644,551.917,342.543,548.727L342.543,548.727z M371.783,536.281h-6.361v8.246h6.361
		c3.769,0.104,5.6-1.35,5.496-4.354C377.279,537.578,375.448,536.281,371.783,536.281L371.783,536.281z M373.236,559.879h-11.455
		v-26.506h11.73c4.732,0.211,7.196,2.436,7.38,6.676c0,2.594-1.151,4.426-3.456,5.496c3.272,1.153,4.907,3.328,4.907,6.52
		C382.055,557.091,379.018,559.693,373.236,559.879L373.236,559.879z M372.369,547.586h-6.947v9.267h7.658
		c3.667-0.104,5.55-1.7,5.653-4.788C378.733,549.077,376.609,547.586,372.369,547.586L372.369,547.586z M386.391,533.374h3.612
		v23.324h13.46v3.182h-17.072V533.374L386.391,533.374z M427.951,546.689c-0.393-6.94-3.479-10.605-9.264-10.995
		c-5.887,0.286-8.977,3.952-9.263,10.995c0.286,6.859,3.376,10.433,9.263,10.719C424.472,557.038,427.559,553.462,427.951,546.689
		L427.951,546.689z M431.561,546.689c-0.57,8.795-4.866,13.334-12.873,13.624c-8.108-0.29-12.454-4.829-13.031-13.624
		c0.472-9.164,4.82-13.838,13.031-14.023C426.694,532.951,430.99,537.628,431.561,546.689L431.561,546.689z M455.588,548.727h-8.121
		v-3.026h11.579v14.179h-2.316l-0.863-3.336c-2.017,2.408-4.908,3.666-8.678,3.77c-3.559,0-6.31-0.92-8.244-2.751
		c-2.902-2.696-4.302-6.416-4.199-11.152c0.678-8.791,4.877-13.371,12.598-13.744c6.545,0.373,10.304,3.268,11.273,8.682h-3.459
		c-0.972-3.671-3.625-5.553-7.969-5.653c-5.496,0.39-8.388,4.015-8.675,10.87c0,7.333,2.94,10.998,8.829,10.998
		c2.121,0,3.952-0.577,5.495-1.729C454.779,554.289,455.69,551.917,455.588,548.727L455.588,548.727z"/>
</g>
</svg>
