<svg fill="#000000" xmlns="http://www.w3.org/2000/svg"  viewBox="0 0 50 50" width="50px" height="50px"><path d="M 25 2 C 16.648438 2 9 8.210938 9 15.914063 L 9 21.757813 C 8.644531 21.847656 8.308594 21.996094 8.015625 22.214844 C 7.371094 22.691406 7 23.398438 7 24.160156 L 7 26.277344 C 7 26.421875 7.015625 26.5625 7.039063 26.703125 C 5.859375 28.800781 5 30.929688 5 32.703125 C 5 37.808594 5.855469 38 5.984375 38 C 5.996094 38 6 38 6 38 C 6.707031 38 8.527344 36.5 9.585938 35.234375 C 10.335938 37.285156 11.398438 39.164063 12.703125 40.796875 C 10.886719 41.542969 9.703125 42.695313 9.703125 43.972656 C 9.703125 46.160156 13.117188 48 17.355469 48 C 19.460938 48 21.351563 47.542969 22.734375 46.816406 C 23.472656 46.929688 24.230469 47 25 47 C 25.769531 47 26.519531 46.929688 27.253906 46.816406 C 28.636719 47.542969 30.539063 48 32.644531 48 C 36.882813 48 40.296875 46.160156 40.296875 43.972656 C 40.296875 42.695313 39.121094 41.535156 37.296875 40.792969 C 38.605469 39.160156 39.664063 37.28125 40.410156 35.234375 C 41.46875 36.5 43.292969 38 44 38 C 44 38 44.003906 38 44.015625 38 C 44.144531 38 45 37.808594 45 32.703125 C 45 30.3125 44.457031 28.628906 42.988281 26.410156 C 42.992188 26.363281 43 26.320313 43 26.277344 L 43 24.160156 C 43 23.398438 42.628906 22.691406 41.984375 22.214844 C 41.691406 21.992188 41.355469 21.847656 41 21.753906 L 41 16 C 41 8.292969 33.351563 2 25 2 Z M 25 4 C 32.457031 4 39 9.605469 39 16 L 39 21.855469 C 37 22.199219 33.949219 22.558594 29.488281 22.707031 C 32.683594 22.308594 36.410156 21.359375 36.410156 19.125 C 36.410156 18.144531 36.414063 16.996094 32.433594 16.402344 C 33.402344 15.3125 34 13.757813 34 12 C 34 8.636719 31.804688 6 29 6 C 27.347656 6 25.90625 6.914063 25 8.359375 C 24.09375 6.914063 22.652344 6 21 6 C 18.195313 6 16 8.636719 16 12 C 16 13.757813 16.597656 15.3125 17.566406 16.402344 C 13.585938 16.996094 13.589844 18.144531 13.589844 19.125 C 13.589844 21.359375 17.316406 22.304688 20.511719 22.707031 C 16.050781 22.558594 12.996094 22.199219 11 21.855469 L 11 15.914063 C 11 9.566406 17.542969 4 25 4 Z M 21 8 C 22.65625 8 24 9.789063 24 12 C 24 14.210938 22.65625 16 21 16 C 19.34375 16 18 14.210938 18 12 C 18 9.789063 19.34375 8 21 8 Z M 29 8 C 30.65625 8 32 9.789063 32 12 C 32 14.210938 30.65625 16 29 16 C 27.34375 16 26 14.210938 26 12 C 26 9.789063 27.34375 8 29 8 Z M 21 12 C 20.449219 12 20 12.449219 20 13 C 20 13.550781 20.449219 14 21 14 C 21.550781 14 22 13.550781 22 13 C 22 12.449219 21.550781 12 21 12 Z M 29 12 C 28.449219 12 28 12.449219 28 13 L 30 13 C 30 12.449219 29.550781 12 29 12 Z M 25 18 C 30.175781 18 34.410156 18.523438 34.410156 19.125 C 34.410156 19.726563 30.175781 21 25 21 C 19.824219 21 15.589844 19.726563 15.589844 19.125 C 15.589844 18.523438 19.824219 18 25 18 Z M 9.710938 23.660156 C 9.75 23.660156 9.789063 23.664063 9.828125 23.671875 C 12.382813 24.175781 17.09375 24.777344 25 24.777344 C 32.90625 24.777344 37.613281 24.175781 40.175781 23.671875 C 40.214844 23.664063 40.253906 23.660156 40.289063 23.660156 C 40.40625 23.660156 40.519531 23.699219 40.613281 23.769531 C 40.746094 23.867188 40.816406 24.003906 40.816406 24.160156 L 40.816406 26.277344 C 40.816406 26.503906 40.65625 26.703125 40.417969 26.761719 C 38.050781 27.324219 33.453125 28 25.011719 28 C 17.332031 28 12.839844 27.445313 10.300781 26.917969 C 9.785156 26.789063 9.171875 26.679688 9.179688 25.960938 L 9.179688 24.160156 C 9.179688 24.003906 9.253906 23.867188 9.382813 23.769531 C 9.480469 23.699219 9.59375 23.660156 9.710938 23.660156 Z M 41.800781 28.28125 C 42.6875 29.792969 43 31 43 32.703125 C 43 33.65625 42.96875 34.394531 42.921875 34.964844 C 42.589844 34.65625 42.246094 34.3125 41.945313 33.953125 L 39.71875 31.292969 L 38.53125 34.550781 C 37.867188 36.378906 36.925781 38.058594 35.738281 39.542969 L 34.0625 41.632813 L 36.546875 42.644531 C 37.878906 43.191406 38.296875 43.808594 38.296875 43.972656 C 38.296875 44.480469 36.289063 46 32.644531 46 C 30.960938 46 29.335938 45.652344 28.1875 45.046875 L 27.605469 44.738281 L 26.953125 44.839844 C 26.253906 44.949219 25.617188 45 25 45 C 24.378906 45 23.738281 44.949219 23.042969 44.839844 L 22.390625 44.738281 L 21.800781 45.046875 C 20.652344 45.652344 19.027344 46 17.355469 46 C 13.710938 46 11.703125 44.480469 11.703125 43.972656 C 11.703125 43.820313 12.136719 43.191406 13.460938 42.652344 L 15.9375 41.640625 L 14.265625 39.546875 C 13.339844 38.394531 12.566406 37.121094 11.953125 35.75 C 12.273438 36.003906 12.652344 36.171875 13.0625 36.246094 L 14.90625 36.566406 L 15.46875 37.289063 C 18.464844 41.132813 21.582031 43 25 43 C 31.269531 43 36.007813 36.503906 37.921875 30.066406 L 38.171875 29.21875 C 39.285156 29.050781 40.175781 28.875 40.878906 28.703125 C 41.222656 28.625 41.53125 28.476563 41.800781 28.28125 Z M 8.414063 28.363281 C 8.472656 28.527344 9.390625 28.769531 9.390625 28.769531 L 9.894531 28.875 C 10.519531 29.007813 11.191406 29.125 11.90625 29.234375 L 11.046875 33.28125 L 11.039063 33.3125 L 11.03125 33.347656 C 11.03125 33.351563 11.03125 33.351563 11.03125 33.355469 L 10.28125 31.292969 L 8.054688 33.953125 C 7.753906 34.3125 7.410156 34.65625 7.078125 34.964844 C 7.03125 34.394531 7 33.65625 7 32.703125 C 7 31.9375 7.257813 30.578125 8.414063 28.363281 Z M 13.894531 29.484375 C 14.78125 29.582031 15.761719 29.671875 16.851563 29.746094 L 15.957031 34.214844 C 15.910156 34.484375 15.667969 34.628906 15.46875 34.628906 C 15.4375 34.628906 15.40625 34.625 15.378906 34.621094 L 13.410156 34.273438 C 13.136719 34.226563 12.957031 33.964844 13.003906 33.695313 Z M 36 29.5 C 34.148438 35.734375 29.921875 41 25 41 C 21.78125 41 19.199219 38.820313 17.046875 36.0625 C 17.496094 35.695313 17.820313 35.171875 17.929688 34.5625 L 18.832031 29.859375 C 20.636719 29.949219 22.679688 30 25.011719 30 C 29.75 30 33.320313 29.785156 36 29.5 Z"/></svg>